<?xml version="1.0" encoding="UTF-8"?>
<svg xmlns="http://www.w3.org/2000/svg" xmlns:xlink="http://www.w3.org/1999/xlink" width="247px" height="218px" viewBox="0 0 247 218" version="1.1">
<defs>
<filter id="alpha" filterUnits="objectBoundingBox" x="0%" y="0%" width="100%" height="100%">
  <feColorMatrix type="matrix" in="SourceGraphic" values="0 0 0 0 1 0 0 0 0 1 0 0 0 0 1 0 0 0 1 0"/>
</filter>
<mask id="mask0">
  <g filter="url(#alpha)">
<rect x="0" y="0" width="247" height="218" style="fill:rgb(0%,0%,0%);fill-opacity:0.701961;stroke:none;"/>
  </g>
</mask>
<clipPath id="clip1">
  <rect x="0" y="0" width="247" height="218"/>
</clipPath>
<g id="surface5" clip-path="url(#clip1)">
<path style=" stroke:none;fill-rule:nonzero;fill:rgb(100%,100%,100%);fill-opacity:1;" d="M 57.230469 181.933594 C 57.230469 181.933594 21.292969 140.691406 35.992188 78.136719 C 35.992188 78.136719 43.859375 22.886719 91.066406 45.5625 C 91.066406 45.5625 120.488281 57.570312 143.066406 43.785156 C 143.066406 43.785156 196.023438 9.25 210.378906 55.222656 C 210.378906 55.222656 225.253906 103.011719 201.988281 140.367188 Z M 57.230469 181.933594 "/>
</g>
<mask id="mask1">
  <g filter="url(#alpha)">
<rect x="0" y="0" width="247" height="218" style="fill:rgb(0%,0%,0%);fill-opacity:0.2;stroke:none;"/>
  </g>
</mask>
<clipPath id="clip2">
  <rect x="0" y="0" width="247" height="218"/>
</clipPath>
<g id="surface8" clip-path="url(#clip2)">
<path style=" stroke:none;fill-rule:nonzero;fill:rgb(0%,0%,0%);fill-opacity:1;" d="M 144.867188 113.371094 C 144.867188 113.371094 144.734375 129.890625 144.464844 133.359375 L 146.621094 137.769531 Z M 144.867188 113.371094 "/>
</g>
<mask id="mask2">
  <g filter="url(#alpha)">
<rect x="0" y="0" width="247" height="218" style="fill:rgb(0%,0%,0%);fill-opacity:0.2;stroke:none;"/>
  </g>
</mask>
<clipPath id="clip3">
  <rect x="0" y="0" width="247" height="218"/>
</clipPath>
<g id="surface11" clip-path="url(#clip3)">
<path style=" stroke:none;fill-rule:nonzero;fill:rgb(100%,100%,100%);fill-opacity:1;" d="M 133 122.375 C 133.113281 121.96875 133.445312 121.59375 134.332031 121.738281 C 134.332031 121.738281 138.3125 121.636719 139.15625 121.117188 C 139.15625 121.117188 140.765625 119.628906 141.59375 121.433594 C 141.59375 121.433594 143.589844 124.167969 144.203125 129.007812 C 144.203125 129.007812 145.421875 134.21875 142.316406 132.046875 C 142.316406 132.046875 141.152344 134.402344 137.660156 133.785156 C 137.660156 133.785156 136.421875 133.703125 136.074219 132.777344 C 135.964844 132.464844 135.976562 132.121094 136.101562 131.816406 C 136.464844 130.898438 137.425781 127.425781 133.335938 123.550781 C 133.023438 123.269531 132.894531 122.808594 133 122.375 Z M 133 122.375 "/>
</g>
<mask id="mask3">
  <g filter="url(#alpha)">
<rect x="0" y="0" width="247" height="218" style="fill:rgb(0%,0%,0%);fill-opacity:0.2;stroke:none;"/>
  </g>
</mask>
<clipPath id="clip4">
  <rect x="0" y="0" width="247" height="218"/>
</clipPath>
<g id="surface14" clip-path="url(#clip4)">
<path style=" stroke:none;fill-rule:nonzero;fill:rgb(100%,100%,100%);fill-opacity:1;" d="M 134.339844 121.75 L 136.570312 124.832031 C 137.09375 125.542969 137.476562 126.367188 137.695312 127.253906 C 138.269531 129.394531 137.960938 131.707031 136.855469 133.566406 C 136.855469 133.566406 136.285156 133.503906 136.074219 132.609375 C 136.007812 132.320312 136.03125 132.015625 136.140625 131.746094 C 136.425781 130.984375 136.976562 128.871094 135.371094 126.027344 C 135.371094 126.027344 134.285156 124.347656 133.339844 123.546875 C 133.339844 123.546875 132.542969 122.722656 133.164062 122.050781 C 133.15625 122.050781 133.453125 121.785156 134.339844 121.75 Z M 134.339844 121.75 "/>
</g>
<mask id="mask4">
  <g filter="url(#alpha)">
<rect x="0" y="0" width="247" height="218" style="fill:rgb(0%,0%,0%);fill-opacity:0.2;stroke:none;"/>
  </g>
</mask>
<clipPath id="clip5">
  <rect x="0" y="0" width="247" height="218"/>
</clipPath>
<g id="surface17" clip-path="url(#clip5)">
<path style=" stroke:none;fill-rule:nonzero;fill:rgb(100%,100%,100%);fill-opacity:1;" d="M 137.300781 121.550781 C 137.300781 121.550781 139.601562 124.105469 140.070312 125.9375 C 140.070312 125.9375 141.410156 124.023438 139.5 120.875 C 139.5 120.875 139.078125 121.417969 137.164062 121.566406 "/>
</g>
<mask id="mask5">
  <g filter="url(#alpha)">
<rect x="0" y="0" width="247" height="218" style="fill:rgb(0%,0%,0%);fill-opacity:0.2;stroke:none;"/>
  </g>
</mask>
<clipPath id="clip6">
  <rect x="0" y="0" width="247" height="218"/>
</clipPath>
<g id="surface20" clip-path="url(#clip6)">
<path style=" stroke:none;fill-rule:nonzero;fill:rgb(100%,100%,100%);fill-opacity:1;" d="M 140.875 125.570312 C 140.875 125.570312 142.105469 130.542969 140.101562 133.714844 C 141 133.492188 141.789062 132.898438 142.316406 132.050781 C 142.316406 132.050781 143.039062 127.804688 140.875 125.570312 Z M 140.875 125.570312 "/>
</g>
<mask id="mask6">
  <g filter="url(#alpha)">
<rect x="0" y="0" width="247" height="218" style="fill:rgb(0%,0%,0%);fill-opacity:0.2;stroke:none;"/>
  </g>
</mask>
<clipPath id="clip7">
  <rect x="0" y="0" width="247" height="218"/>
</clipPath>
<g id="surface23" clip-path="url(#clip7)">
<path style=" stroke:none;fill-rule:nonzero;fill:rgb(0%,0%,0%);fill-opacity:1;" d="M 167.246094 144.6875 C 167.246094 144.6875 169.707031 146.773438 171.703125 151.121094 C 171.703125 151.121094 173.347656 150.285156 169.992188 144.6875 C 169.992188 144.6875 171.261719 143.433594 171.558594 142.34375 C 171.558594 142.34375 173.269531 144.1875 173.800781 146.175781 C 173.800781 146.175781 174.25 143.082031 171.707031 141.578125 C 172.253906 139.46875 172.652344 137.316406 172.902344 135.140625 C 172.902344 135.140625 174.632812 123.011719 177.535156 119.007812 C 177.535156 119.007812 172.972656 121.765625 170.585938 132.96875 C 170.195312 135.203125 169.945312 137.464844 169.84375 139.738281 C 169.84375 139.738281 169.660156 144.519531 167.246094 144.6875 Z M 167.246094 144.6875 "/>
</g>
<mask id="mask7">
  <g filter="url(#alpha)">
<rect x="0" y="0" width="247" height="218" style="fill:rgb(0%,0%,0%);fill-opacity:0.2;stroke:none;"/>
  </g>
</mask>
<clipPath id="clip8">
  <rect x="0" y="0" width="247" height="218"/>
</clipPath>
<g id="surface26" clip-path="url(#clip8)">
<path style=" stroke:none;fill-rule:nonzero;fill:rgb(100%,100%,100%);fill-opacity:1;" d="M 170.660156 160.4375 C 168.382812 162.8125 165.195312 163.761719 162.164062 162.957031 L 162 162.910156 C 162 162.910156 159.71875 162.640625 160.515625 160.4375 C 160.515625 160.4375 163.714844 157.902344 156.503906 149.371094 C 156.503906 149.371094 154.085938 147.402344 155.570312 146.675781 C 155.617188 146.648438 155.667969 146.625 155.722656 146.609375 C 155.722656 146.609375 155.945312 146.191406 160.054688 146.191406 C 160.054688 146.191406 162.910156 146.136719 164.242188 145.285156 C 164.242188 145.285156 166.070312 143.457031 167.246094 144.683594 C 167.246094 144.683594 172.253906 150.367188 172.382812 156.386719 C 172.390625 156.398438 173.128906 163.226562 170.660156 160.4375 Z M 170.660156 160.4375 "/>
</g>
<mask id="mask8">
  <g filter="url(#alpha)">
<rect x="0" y="0" width="247" height="218" style="fill:rgb(0%,0%,0%);fill-opacity:0.301961;stroke:none;"/>
  </g>
</mask>
<clipPath id="clip9">
  <rect x="0" y="0" width="247" height="218"/>
</clipPath>
<g id="surface29" clip-path="url(#clip9)">
<path style=" stroke:none;fill-rule:nonzero;fill:rgb(100%,100%,100%);fill-opacity:1;" d="M 162.164062 162.957031 L 162 162.910156 C 162 162.910156 159.71875 162.640625 160.515625 160.4375 C 160.515625 160.4375 163.714844 157.902344 156.503906 149.371094 C 156.503906 149.371094 154.085938 147.402344 155.570312 146.675781 C 158.039062 148.65625 163.636719 154.207031 162.164062 162.957031 Z M 162.164062 162.957031 "/>
</g>
<mask id="mask9">
  <g filter="url(#alpha)">
<rect x="0" y="0" width="247" height="218" style="fill:rgb(0%,0%,0%);fill-opacity:0.2;stroke:none;"/>
  </g>
</mask>
<clipPath id="clip10">
  <rect x="0" y="0" width="247" height="218"/>
</clipPath>
<g id="surface32" clip-path="url(#clip10)">
<path style=" stroke:none;fill-rule:nonzero;fill:rgb(100%,100%,100%);fill-opacity:1;" d="M 157.960938 146.238281 C 157.960938 146.238281 163.269531 152.128906 164.613281 155.886719 C 164.613281 155.886719 165.601562 152.125 160.808594 146.148438 Z M 157.960938 146.238281 "/>
</g>
<mask id="mask10">
  <g filter="url(#alpha)">
<rect x="0" y="0" width="247" height="218" style="fill:rgb(0%,0%,0%);fill-opacity:0.2;stroke:none;"/>
  </g>
</mask>
<clipPath id="clip11">
  <rect x="0" y="0" width="247" height="218"/>
</clipPath>
<g id="surface35" clip-path="url(#clip11)">
<path style=" stroke:none;fill-rule:nonzero;fill:rgb(100%,100%,100%);fill-opacity:1;" d="M 164.242188 145.285156 C 164.242188 145.285156 166.03125 148.617188 166.03125 150.121094 C 166.03125 150.121094 166.832031 148.132812 165.574219 144.402344 C 165.101562 144.644531 164.65625 144.941406 164.242188 145.285156 Z M 164.242188 145.285156 "/>
</g>
<mask id="mask11">
  <g filter="url(#alpha)">
<rect x="0" y="0" width="247" height="218" style="fill:rgb(0%,0%,0%);fill-opacity:0.2;stroke:none;"/>
  </g>
</mask>
<clipPath id="clip12">
  <rect x="0" y="0" width="247" height="218"/>
</clipPath>
<g id="surface38" clip-path="url(#clip12)">
<path style=" stroke:none;fill-rule:nonzero;fill:rgb(100%,100%,100%);fill-opacity:1;" d="M 167.074219 162.78125 C 167.074219 162.78125 171.636719 159.355469 169.03125 152.691406 C 169.03125 152.691406 170.765625 154.113281 170.660156 160.441406 C 169.660156 161.546875 168.425781 162.351562 167.074219 162.78125 Z M 167.074219 162.78125 "/>
</g>
<mask id="mask12">
  <g filter="url(#alpha)">
<rect x="0" y="0" width="247" height="218" style="fill:rgb(0%,0%,0%);fill-opacity:0.101961;stroke:none;"/>
  </g>
</mask>
<clipPath id="clip13">
  <rect x="0" y="0" width="247" height="218"/>
</clipPath>
<g id="surface41" clip-path="url(#clip13)">
<path style=" stroke:none;fill-rule:nonzero;fill:rgb(0%,0%,0%);fill-opacity:1;" d="M 106.203125 146.148438 L 133.613281 155.886719 L 111.375 176.453125 L 67.246094 158.550781 L 71.53125 155.773438 Z M 106.203125 146.148438 "/>
</g>
<mask id="mask13">
  <g filter="url(#alpha)">
<rect x="0" y="0" width="247" height="218" style="fill:rgb(0%,0%,0%);fill-opacity:0.2;stroke:none;"/>
  </g>
</mask>
<clipPath id="clip14">
  <rect x="0" y="0" width="247" height="218"/>
</clipPath>
<g id="surface44" clip-path="url(#clip14)">
<path style=" stroke:none;fill-rule:nonzero;fill:rgb(0%,0%,0%);fill-opacity:1;" d="M 54.789062 113.371094 L 57.1875 111.59375 L 103.464844 123.660156 L 111.171875 173.3125 L 109.605469 174.746094 L 101.125 126.453125 Z M 54.789062 113.371094 "/>
</g>
<mask id="mask14">
  <g filter="url(#alpha)">
<rect x="0" y="0" width="247" height="218" style="fill:rgb(0%,0%,0%);fill-opacity:0.101961;stroke:none;"/>
  </g>
</mask>
<clipPath id="clip15">
  <rect x="0" y="0" width="247" height="218"/>
</clipPath>
<g id="surface47" clip-path="url(#clip15)">
<path style=" stroke:none;fill-rule:nonzero;fill:rgb(0%,0%,0%);fill-opacity:1;" d="M 111.171875 173.3125 L 121.359375 162.203125 L 108.84375 158.316406 Z M 111.171875 173.3125 "/>
</g>
<mask id="mask15">
  <g filter="url(#alpha)">
<rect x="0" y="0" width="247" height="218" style="fill:rgb(0%,0%,0%);fill-opacity:0.101961;stroke:none;"/>
  </g>
</mask>
<clipPath id="clip16">
  <rect x="0" y="0" width="247" height="218"/>
</clipPath>
<g id="surface50" clip-path="url(#clip16)">
<path style=" stroke:none;fill-rule:nonzero;fill:rgb(0%,0%,0%);fill-opacity:1;" d="M 108.347656 155.132812 L 111.597656 156.519531 L 115.59375 152.375 L 107.308594 148.410156 Z M 108.347656 155.132812 "/>
</g>
<mask id="mask16">
  <g filter="url(#alpha)">
<rect x="0" y="0" width="247" height="218" style="fill:rgb(0%,0%,0%);fill-opacity:0.101961;stroke:none;"/>
  </g>
</mask>
<clipPath id="clip17">
  <rect x="0" y="0" width="247" height="218"/>
</clipPath>
<g id="surface53" clip-path="url(#clip17)">
<path style=" stroke:none;fill-rule:nonzero;fill:rgb(0%,0%,0%);fill-opacity:1;" d="M 110.738281 188.953125 L 93.625 199.394531 L 91.910156 199.394531 L 111.164062 187.585938 C 111.351562 188.097656 111.167969 188.683594 110.738281 188.953125 Z M 110.738281 188.953125 "/>
</g>
<mask id="mask17">
  <g filter="url(#alpha)">
<rect x="0" y="0" width="247" height="218" style="fill:rgb(0%,0%,0%);fill-opacity:0.101961;stroke:none;"/>
  </g>
</mask>
<clipPath id="clip18">
  <rect x="0" y="0" width="247" height="218"/>
</clipPath>
<g id="surface56" clip-path="url(#clip18)">
<path style=" stroke:none;fill-rule:nonzero;fill:rgb(0%,0%,0%);fill-opacity:1;" d="M 113.566406 193.742188 L 103.265625 202.148438 L 102.234375 202.148438 L 113.828125 192.628906 C 113.949219 193.023438 113.84375 193.464844 113.566406 193.742188 Z M 113.566406 193.742188 "/>
</g>
<mask id="mask18">
  <g filter="url(#alpha)">
<rect x="0" y="0" width="247" height="218" style="fill:rgb(0%,0%,0%);fill-opacity:0.101961;stroke:none;"/>
  </g>
</mask>
<clipPath id="clip19">
  <rect x="0" y="0" width="247" height="218"/>
</clipPath>
<g id="surface59" clip-path="url(#clip19)">
<path style=" stroke:none;fill-rule:nonzero;fill:rgb(0%,0%,0%);fill-opacity:1;" d="M 138.253906 168.089844 L 138.253906 167.539062 L 141.390625 166.191406 L 151.25 168.457031 L 154.125 178.585938 L 157.121094 179.667969 L 154.820312 185.304688 L 156.632812 191.597656 L 154.699219 192.542969 L 138.253906 168.90625 Z M 138.253906 168.089844 "/>
</g>
<mask id="mask19">
  <g filter="url(#alpha)">
<rect x="0" y="0" width="247" height="218" style="fill:rgb(0%,0%,0%);fill-opacity:0.2;stroke:none;"/>
  </g>
</mask>
<clipPath id="clip20">
  <rect x="0" y="0" width="247" height="218"/>
</clipPath>
<g id="surface62" clip-path="url(#clip20)">
<path style=" stroke:none;fill-rule:nonzero;fill:rgb(0%,0%,0%);fill-opacity:1;" d="M 162.492188 83.625 C 162.492188 83.625 161.636719 84.058594 162.070312 84.929688 L 161.578125 86.972656 L 160.292969 86.816406 C 159.613281 86.097656 160.292969 84.882812 160.292969 84.882812 C 160.640625 84.1875 160.640625 83.34375 160.292969 82.648438 C 160.011719 81.121094 159.484375 79.664062 158.742188 78.347656 C 156.304688 78.265625 156.460938 77.308594 156.460938 77.308594 C 155.945312 75.859375 151.214844 78.265625 151.214844 78.265625 C 144.792969 81.390625 141.316406 78.835938 141.316406 78.835938 C 139.972656 78.125 140.117188 77.097656 140.589844 76.253906 C 140.625 76.375 141.570312 79.621094 147.308594 77.265625 C 147.308594 77.265625 155.578125 71.71875 159.0625 74.613281 C 159.0625 74.613281 159.730469 75.277344 159.652344 76.933594 C 159.652344 76.933594 159.179688 78.328125 160.613281 79.167969 C 160.613281 79.15625 163.925781 80.796875 162.492188 83.625 Z M 162.492188 83.625 "/>
</g>
<mask id="mask20">
  <g filter="url(#alpha)">
<rect x="0" y="0" width="247" height="218" style="fill:rgb(0%,0%,0%);fill-opacity:0.2;stroke:none;"/>
  </g>
</mask>
<clipPath id="clip21">
  <rect x="0" y="0" width="247" height="218"/>
</clipPath>
<g id="surface65" clip-path="url(#clip21)">
<path style=" stroke:none;fill-rule:nonzero;fill:rgb(100%,100%,100%);fill-opacity:1;" d="M 154.75 102.394531 L 149.988281 106.496094 L 148.042969 117.503906 L 152.175781 113.085938 L 154.328125 118.144531 L 154.773438 105.472656 C 154.90625 104.453125 154.898438 103.414062 154.75 102.394531 Z M 154.75 102.394531 "/>
</g>
<mask id="mask21">
  <g filter="url(#alpha)">
<rect x="0" y="0" width="247" height="218" style="fill:rgb(0%,0%,0%);fill-opacity:0.2;stroke:none;"/>
  </g>
</mask>
<clipPath id="clip22">
  <rect x="0" y="0" width="247" height="218"/>
</clipPath>
<g id="surface68" clip-path="url(#clip22)">
<path style=" stroke:none;fill-rule:nonzero;fill:rgb(100%,100%,100%);fill-opacity:1;" d="M 157.613281 112.046875 C 157.613281 112.046875 161.554688 111.574219 164.3125 115.789062 L 167.246094 120.257812 L 165.800781 104.03125 C 165.800781 104.03125 166.371094 100.640625 163.894531 99.796875 L 164.199219 101.03125 C 164.199219 101.03125 166.414062 102.414062 164.179688 105.207031 C 164.179688 105.207031 163.082031 106.84375 160.519531 108.695312 C 159.3125 109.519531 158.3125 110.671875 157.613281 112.046875 Z M 157.613281 112.046875 "/>
</g>
<mask id="mask22">
  <g filter="url(#alpha)">
<rect x="0" y="0" width="247" height="218" style="fill:rgb(0%,0%,0%);fill-opacity:0.2;stroke:none;"/>
  </g>
</mask>
<clipPath id="clip23">
  <rect x="0" y="0" width="247" height="218"/>
</clipPath>
<g id="surface71" clip-path="url(#clip23)">
<path style=" stroke:none;fill-rule:nonzero;fill:rgb(0%,0%,0%);fill-opacity:1;" d="M 93.984375 157.46875 L 93.285156 159.601562 L 100.074219 161.660156 L 103.25 147.882812 L 102.234375 144.0625 L 101.230469 144.683594 Z M 93.984375 157.46875 "/>
</g>
<mask id="mask23">
  <g filter="url(#alpha)">
<rect x="0" y="0" width="247" height="218" style="fill:rgb(0%,0%,0%);fill-opacity:0.2;stroke:none;"/>
  </g>
</mask>
<clipPath id="clip24">
  <rect x="0" y="0" width="247" height="218"/>
</clipPath>
<g id="surface74" clip-path="url(#clip24)">
<path style=" stroke:none;fill-rule:nonzero;fill:rgb(0%,0%,0%);fill-opacity:1;" d="M 70.0625 121.246094 L 71.113281 120.734375 L 74.488281 132.933594 L 68.117188 135.417969 L 65.761719 123.660156 Z M 70.0625 121.246094 "/>
</g>
<mask id="mask24">
  <g filter="url(#alpha)">
<rect x="0" y="0" width="247" height="218" style="fill:rgb(0%,0%,0%);fill-opacity:0.101961;stroke:none;"/>
  </g>
</mask>
<clipPath id="clip25">
  <rect x="0" y="0" width="247" height="218"/>
</clipPath>
<g id="surface77" clip-path="url(#clip25)">
<path style=" stroke:none;fill-rule:nonzero;fill:rgb(0%,0%,0%);fill-opacity:1;" d="M 126.460938 187.953125 L 126.191406 189.074219 L 143.589844 194.160156 C 143.589844 194.160156 148.261719 181.804688 148.488281 178.921875 L 148.042969 176.453125 C 148.042969 176.453125 145.273438 189.40625 142.554688 192.960938 Z M 126.460938 187.953125 "/>
</g>
<mask id="mask25">
  <g filter="url(#alpha)">
<rect x="0" y="0" width="247" height="218" style="fill:rgb(0%,0%,0%);fill-opacity:0.101961;stroke:none;"/>
  </g>
</mask>
<clipPath id="clip26">
  <rect x="0" y="0" width="247" height="218"/>
</clipPath>
<g id="surface80" clip-path="url(#clip26)">
<path style=" stroke:none;fill-rule:nonzero;fill:rgb(0%,0%,0%);fill-opacity:1;" d="M 150.109375 190.488281 L 150.46875 193.273438 L 153.636719 187.085938 L 153.054688 184.101562 Z M 150.109375 190.488281 "/>
</g>
<mask id="mask26">
  <g filter="url(#alpha)">
<rect x="0" y="0" width="247" height="218" style="fill:rgb(0%,0%,0%);fill-opacity:0.101961;stroke:none;"/>
  </g>
</mask>
<clipPath id="clip27">
  <rect x="0" y="0" width="247" height="218"/>
</clipPath>
<g id="surface83" clip-path="url(#clip27)">
<path style=" stroke:none;fill-rule:nonzero;fill:rgb(0%,0%,0%);fill-opacity:1;" d="M 148.261719 177.378906 L 148.042969 176.453125 L 148.488281 175.046875 L 151.683594 177.085938 L 152.074219 179.066406 Z M 148.261719 177.378906 "/>
</g>
<mask id="mask27">
  <g filter="url(#alpha)">
<rect x="0" y="0" width="247" height="218" style="fill:rgb(0%,0%,0%);fill-opacity:0.2;stroke:none;"/>
  </g>
</mask>
<clipPath id="clip28">
  <rect x="0" y="0" width="247" height="218"/>
</clipPath>
<g id="surface86" clip-path="url(#clip28)">
<path style=" stroke:none;fill-rule:nonzero;fill:rgb(0%,0%,0%);fill-opacity:1;" d="M 78.71875 27.597656 L 71.605469 27.597656 C 71.605469 27.597656 72.140625 29.738281 72.882812 30.53125 C 72.882812 30.53125 71.003906 33.933594 75.164062 35.300781 L 75.164062 40.726562 L 74.546875 41.960938 L 73.324219 41.347656 L 71.613281 43.84375 L 71.613281 44.542969 C 71.613281 44.542969 62.601562 47.773438 61.4375 51.070312 C 61.4375 51.070312 57.875 57.738281 59.292969 72.851562 C 59.292969 72.851562 59.863281 84.417969 64.546875 85.535156 C 64.546875 85.535156 64.710938 89.738281 65.792969 90.480469 L 63.796875 95.472656 L 70.753906 95.472656 L 75.71875 92.511719 L 84.5625 37.183594 L 83.1875 27.609375 Z M 78.71875 27.597656 "/>
</g>
<mask id="mask28">
  <g filter="url(#alpha)">
<rect x="0" y="0" width="247" height="218" style="fill:rgb(0%,0%,0%);fill-opacity:0.2;stroke:none;"/>
  </g>
</mask>
<clipPath id="clip29">
  <rect x="0" y="0" width="247" height="218"/>
</clipPath>
<g id="surface89" clip-path="url(#clip29)">
<path style=" stroke:none;fill-rule:nonzero;fill:rgb(0%,0%,0%);fill-opacity:1;" d="M 102.984375 51.664062 C 103.949219 56.972656 104.183594 67.304688 104.222656 69.539062 C 104.222656 69.882812 104.332031 70.210938 104.527344 70.476562 C 104.902344 70.964844 105.1875 70.722656 105.363281 70.429688 C 105.496094 70.195312 105.566406 69.925781 105.566406 69.648438 C 105.621094 68.59375 105.792969 67.554688 106.078125 66.550781 C 106.285156 65.808594 106.605469 65.113281 107.019531 64.492188 L 111.066406 58.398438 C 113.484375 54.476562 115.816406 55.222656 115.816406 55.222656 C 119.808594 56.429688 120.320312 55.222656 120.320312 55.222656 C 120.191406 55.171875 116.355469 53.515625 114.617188 50.789062 C 114.542969 50.675781 114.429688 50.609375 114.304688 50.609375 C 114.183594 50.609375 114.066406 50.675781 113.996094 50.789062 L 105.730469 63.140625 C 105.730469 63.140625 104.898438 56.691406 102.984375 51.664062 Z M 102.984375 51.664062 "/>
</g>
<mask id="mask29">
  <g filter="url(#alpha)">
<rect x="0" y="0" width="247" height="218" style="fill:rgb(0%,0%,0%);fill-opacity:0.2;stroke:none;"/>
  </g>
</mask>
<clipPath id="clip30">
  <rect x="0" y="0" width="247" height="218"/>
</clipPath>
<g id="surface92" clip-path="url(#clip30)">
<path style=" stroke:none;fill-rule:nonzero;fill:rgb(0%,0%,0%);fill-opacity:1;" d="M 107.96875 77.949219 C 107.96875 77.949219 102.3125 76.765625 100.394531 74.339844 L 100.144531 77.507812 C 100.144531 77.507812 103.285156 80.628906 107.96875 77.949219 Z M 107.96875 77.949219 "/>
</g>
<mask id="mask30">
  <g filter="url(#alpha)">
<rect x="0" y="0" width="247" height="218" style="fill:rgb(0%,0%,0%);fill-opacity:0.2;stroke:none;"/>
  </g>
</mask>
<clipPath id="clip31">
  <rect x="0" y="0" width="247" height="218"/>
</clipPath>
<g id="surface95" clip-path="url(#clip31)">
<path style=" stroke:none;fill-rule:nonzero;fill:rgb(0%,0%,0%);fill-opacity:1;" d="M 88.054688 79.75 C 88.054688 79.75 86.289062 79.84375 84.839844 72.65625 C 83.539062 73.382812 82.074219 73.648438 80.636719 73.410156 C 80.050781 73.320312 78.199219 71.640625 78.199219 71.640625 C 78.199219 71.640625 82.019531 51.851562 71.992188 46.683594 L 69.617188 48.5625 L 68.5625 49.746094 C 68.5625 49.746094 75.21875 52.792969 74.632812 60.070312 L 74.464844 67.628906 C 74.464844 67.628906 71.132812 69.960938 71.042969 71.359375 C 71.042969 71.359375 70.878906 73.503906 73.792969 72.664062 C 73.792969 72.664062 71.378906 74.753906 72.875 76.691406 C 72.875 76.691406 74.710938 72.761719 77.046875 74.347656 L 79.128906 75.464844 C 79.128906 75.464844 79.460938 75.929688 82.132812 76.117188 C 82.132812 76.117188 83.78125 75.746094 84.832031 77.796875 C 85.335938 78.671875 86.066406 79.355469 86.921875 79.757812 C 86.921875 79.757812 83.175781 86.753906 71.210938 84.328125 C 71.210938 84.328125 71.164062 89.550781 72.460938 89.550781 L 80.378906 89.550781 C 80.378906 89.550781 77.855469 89.039062 78.304688 87.851562 C 79.105469 87.375 79.574219 86.410156 79.503906 85.398438 C 79.503906 85.398438 83.222656 85.222656 88.054688 79.75 Z M 88.054688 79.75 "/>
</g>
<mask id="mask31">
  <g filter="url(#alpha)">
<rect x="0" y="0" width="247" height="218" style="fill:rgb(0%,0%,0%);fill-opacity:0.2;stroke:none;"/>
  </g>
</mask>
<clipPath id="clip32">
  <rect x="0" y="0" width="247" height="218"/>
</clipPath>
<g id="surface98" clip-path="url(#clip32)">
<path style=" stroke:none;fill-rule:nonzero;fill:rgb(0%,0%,0%);fill-opacity:1;" d="M 97.261719 87.265625 C 97.261719 87.265625 95.132812 84.945312 88.613281 87.847656 L 84.902344 89.546875 L 96.148438 89.546875 C 96.148438 89.546875 97.238281 90.078125 97.261719 87.265625 Z M 97.261719 87.265625 "/>
</g>
<mask id="mask32">
  <g filter="url(#alpha)">
<rect x="0" y="0" width="247" height="218" style="fill:rgb(0%,0%,0%);fill-opacity:0.2;stroke:none;"/>
  </g>
</mask>
<clipPath id="clip33">
  <rect x="0" y="0" width="247" height="218"/>
</clipPath>
<g id="surface101" clip-path="url(#clip33)">
<path style=" stroke:none;fill-rule:nonzero;fill:rgb(0%,0%,0%);fill-opacity:1;" d="M 79.511719 29.417969 C 79.511719 29.417969 80.53125 28.023438 81.867188 29.417969 C 81.867188 29.417969 82.480469 26.40625 82.105469 24.726562 C 83 24.0625 83.546875 22.953125 83.570312 21.753906 C 83.570312 21.753906 86.011719 24.238281 88.230469 22.730469 C 88.230469 22.730469 86.976562 21.648438 87.605469 20.601562 C 87.605469 20.601562 89.136719 24.378906 91.667969 23.433594 C 91.667969 23.433594 91.042969 22.871094 91.328125 22.105469 C 91.328125 22.105469 92.863281 24.511719 93.847656 24.660156 L 94.175781 26.316406 C 94.175781 26.316406 95.261719 26.046875 95.714844 25.058594 C 95.304688 24.015625 94.53125 23.199219 93.578125 22.792969 C 93.578125 22.792969 96.042969 20.792969 94.324219 19.464844 C 94.324219 19.464844 93.6875 18.542969 91.003906 19.6875 C 91.003906 19.6875 88.722656 14.464844 85.539062 18.410156 C 85.539062 18.410156 85.253906 16.378906 86.542969 15.609375 C 86.542969 15.609375 83.230469 15.085938 83.402344 19.003906 C 83.402344 19.003906 81.496094 18.410156 80.8125 20.28125 C 80.8125 20.28125 81.808594 20.351562 81.382812 21.15625 C 81.382812 21.15625 78.554688 20.492188 77.746094 22.929688 C 77.714844 23.9375 77.890625 26.082031 79.511719 29.417969 Z M 79.511719 29.417969 "/>
</g>
<mask id="mask33">
  <g filter="url(#alpha)">
<rect x="0" y="0" width="247" height="218" style="fill:rgb(0%,0%,0%);fill-opacity:0.2;stroke:none;"/>
  </g>
</mask>
<clipPath id="clip34">
  <rect x="0" y="0" width="247" height="218"/>
</clipPath>
<g id="surface104" clip-path="url(#clip34)">
<path style=" stroke:none;fill-rule:nonzero;fill:rgb(0%,0%,0%);fill-opacity:1;" d="M 89.390625 48.308594 L 86.730469 45.300781 L 83.570312 48.871094 L 78.191406 43.195312 L 79.480469 41.195312 C 79.847656 40.628906 80.542969 40.46875 81.078125 40.828125 L 81.691406 41.242188 L 86.828125 43.828125 L 89.84375 41.984375 C 90.046875 41.859375 90.296875 41.871094 90.492188 42.011719 C 91.03125 42.398438 91.9375 43.351562 91.203125 45.089844 Z M 89.390625 48.308594 "/>
</g>
</defs>
<g id="surface1">
<path style=" stroke:none;fill-rule:nonzero;fill:rgb(0%,44.313725%,94.901961%);fill-opacity:1;" d="M 57.230469 181.933594 C 57.230469 181.933594 21.292969 140.691406 35.992188 78.136719 C 35.992188 78.136719 43.859375 22.886719 91.066406 45.5625 C 91.066406 45.5625 120.488281 57.570312 143.066406 43.785156 C 143.066406 43.785156 196.023438 9.25 210.378906 55.222656 C 210.378906 55.222656 225.253906 103.011719 201.988281 140.367188 Z M 57.230469 181.933594 "/>
<use xlink:href="#surface5" mask="url(#mask0)"/>
<path style=" stroke:none;fill-rule:nonzero;fill:rgb(100%,100%,100%);fill-opacity:1;" d="M 187.992188 57.875 C 187.992188 59.363281 186.914062 60.570312 185.582031 60.570312 C 184.253906 60.570312 183.171875 59.363281 183.171875 57.875 C 183.171875 56.382812 184.253906 55.175781 185.582031 55.175781 C 186.914062 55.175781 187.992188 56.382812 187.992188 57.875 Z M 187.992188 57.875 "/>
<path style=" stroke:none;fill-rule:nonzero;fill:rgb(18.431373%,18.039216%,25.490196%);fill-opacity:1;" d="M 185.105469 65.632812 C 177.796875 65.632812 171.851562 62.09375 171.851562 57.742188 C 171.851562 53.390625 177.796875 49.851562 185.105469 49.851562 C 192.417969 49.851562 198.363281 53.390625 198.363281 57.742188 C 198.363281 62.09375 192.402344 65.632812 185.105469 65.632812 Z M 185.105469 50.230469 C 177.976562 50.230469 172.191406 53.601562 172.191406 57.742188 C 172.191406 61.886719 177.976562 65.253906 185.105469 65.253906 C 192.238281 65.253906 198.023438 61.882812 198.023438 57.742188 C 198.023438 53.601562 192.214844 50.230469 185.105469 50.230469 Z M 185.105469 50.230469 "/>
<path style=" stroke:none;fill-rule:nonzero;fill:rgb(18.431373%,18.039216%,25.490196%);fill-opacity:1;" d="M 185.105469 72.574219 C 181.21875 72.574219 178.058594 65.921875 178.058594 57.742188 C 178.058594 49.566406 181.21875 42.910156 185.105469 42.910156 C 188.996094 42.910156 192.15625 49.5625 192.15625 57.742188 C 192.15625 65.921875 188.980469 72.574219 185.105469 72.574219 Z M 185.105469 43.289062 C 181.398438 43.289062 178.394531 49.773438 178.394531 57.742188 C 178.394531 65.710938 181.398438 72.195312 185.105469 72.195312 C 188.816406 72.195312 191.820312 65.710938 191.820312 57.742188 C 191.820312 49.773438 188.796875 43.289062 185.105469 43.289062 Z M 185.105469 43.289062 "/>
<path style=" stroke:none;fill-rule:nonzero;fill:rgb(18.431373%,18.039216%,25.490196%);fill-opacity:1;" d="M 179.460938 68.691406 C 177.378906 68.691406 175.753906 67.945312 174.8125 66.527344 C 172.402344 62.917969 175.203125 55.992188 181.058594 51.101562 C 183.882812 48.742188 186.988281 47.195312 189.800781 46.742188 C 192.617188 46.289062 194.871094 47.003906 196.050781 48.769531 C 197.230469 50.535156 197.21875 53.125 196.015625 56.054688 C 194.816406 58.984375 192.625 61.839844 189.800781 64.195312 C 186.976562 66.554688 183.875 68.101562 181.0625 68.558594 C 180.53125 68.644531 179.996094 68.6875 179.460938 68.691406 Z M 191.40625 46.988281 C 190.886719 46.988281 190.367188 47.03125 189.851562 47.117188 C 187.089844 47.5625 184.039062 49.082031 181.261719 51.402344 C 175.558594 56.175781 172.785156 62.855469 175.085938 66.300781 C 176.1875 67.949219 178.289062 68.617188 181.015625 68.179688 C 183.738281 67.742188 186.820312 66.214844 189.597656 63.894531 C 192.378906 61.574219 194.546875 58.730469 195.710938 55.894531 C 196.871094 53.058594 196.882812 50.652344 195.78125 49 C 194.898438 47.679688 193.378906 46.988281 191.40625 46.988281 Z M 191.40625 46.988281 "/>
<path style=" stroke:none;fill-rule:nonzero;fill:rgb(18.431373%,18.039216%,25.490196%);fill-opacity:1;" d="M 190.8125 69.902344 C 187.621094 69.902344 183.453125 67.667969 179.917969 63.707031 C 177.425781 60.917969 175.613281 57.703125 174.808594 54.648438 C 174.003906 51.597656 174.316406 48.996094 175.710938 47.4375 C 177.105469 45.875 179.390625 45.519531 182.152344 46.429688 C 184.914062 47.339844 187.753906 49.359375 190.246094 52.148438 C 192.738281 54.933594 194.550781 58.152344 195.351562 61.203125 C 196.152344 64.253906 195.847656 66.855469 194.453125 68.414062 C 193.566406 69.429688 192.296875 69.902344 190.8125 69.902344 Z M 179.355469 46.316406 C 177.929688 46.316406 176.769531 46.785156 175.933594 47.703125 C 174.632812 49.164062 174.34375 51.589844 175.117188 54.542969 C 175.894531 57.492188 177.6875 60.691406 180.140625 63.4375 C 185.203125 69.078125 191.511719 71.175781 194.234375 68.152344 C 195.535156 66.695312 195.824219 64.265625 195.046875 61.316406 C 194.269531 58.363281 192.480469 55.164062 190.023438 52.421875 C 187.574219 49.675781 184.75 47.683594 182.078125 46.800781 C 181.199219 46.5 180.289062 46.335938 179.367188 46.324219 Z M 179.355469 46.316406 "/>
<path style=" stroke:none;fill-rule:nonzero;fill:rgb(90.196078%,90.588235%,90.980392%);fill-opacity:1;" d="M 132.753906 10.671875 L 170.351562 10.671875 C 172.386719 10.671875 174.035156 12.519531 174.035156 14.796875 L 174.035156 38.832031 C 174.035156 41.109375 172.386719 42.957031 170.351562 42.957031 L 132.753906 42.957031 C 130.71875 42.957031 129.066406 41.109375 129.066406 38.832031 L 129.066406 14.796875 C 129.066406 12.519531 130.71875 10.671875 132.753906 10.671875 Z M 132.753906 10.671875 "/>
<path style=" stroke:none;fill-rule:nonzero;fill:rgb(90.196078%,90.588235%,90.980392%);fill-opacity:1;" d="M 134.019531 50.390625 L 134.019531 40.898438 L 142.363281 40.898438 C 142.363281 40.898438 139.25 48.96875 134.019531 50.390625 Z M 134.019531 50.390625 "/>
<path style=" stroke:none;fill-rule:nonzero;fill:rgb(100%,100%,100%);fill-opacity:1;" d="M 136.707031 17.476562 L 165.976562 17.476562 L 165.976562 20.800781 L 136.707031 20.800781 Z M 136.707031 17.476562 "/>
<path style=" stroke:none;fill-rule:nonzero;fill:rgb(100%,100%,100%);fill-opacity:1;" d="M 136.707031 24.125 L 165.976562 24.125 L 165.976562 27.445312 L 136.707031 27.445312 Z M 136.707031 24.125 "/>
<path style=" stroke:none;fill-rule:nonzero;fill:rgb(100%,100%,100%);fill-opacity:1;" d="M 136.917969 31.71875 L 166.1875 31.71875 L 166.1875 35.042969 L 136.917969 35.042969 Z M 136.917969 31.71875 "/>
<path style=" stroke:none;fill-rule:nonzero;fill:rgb(90.196078%,90.588235%,90.980392%);fill-opacity:1;" d="M 185.011719 84.738281 L 222.570312 84.738281 L 222.570312 111.765625 L 185.011719 111.765625 Z M 185.011719 84.738281 "/>
<path style=" stroke:none;fill-rule:nonzero;fill:rgb(0%,44.313725%,94.901961%);fill-opacity:1;" d="M 208.234375 102.136719 C 208.234375 104.289062 206.671875 106.035156 204.75 106.035156 C 202.828125 106.035156 201.269531 104.289062 201.269531 102.136719 C 201.269531 99.984375 202.828125 98.242188 204.75 98.242188 C 206.671875 98.242188 208.234375 99.984375 208.234375 102.136719 Z M 208.234375 102.136719 "/>
<path style=" stroke:none;fill-rule:nonzero;fill:rgb(0%,44.313725%,94.901961%);fill-opacity:1;" d="M 212.28125 91.558594 C 212.28125 92.445312 211.640625 93.164062 210.847656 93.164062 C 210.058594 93.164062 209.417969 92.445312 209.417969 91.558594 C 209.417969 90.675781 210.058594 89.957031 210.847656 89.957031 C 211.640625 89.957031 212.28125 90.675781 212.28125 91.558594 Z M 212.28125 91.558594 "/>
<path style=" stroke:none;fill-rule:nonzero;fill:rgb(0%,44.313725%,94.901961%);fill-opacity:1;" d="M 197.273438 102.136719 C 197.273438 103.554688 196.25 104.703125 194.980469 104.703125 C 193.714844 104.703125 192.6875 103.554688 192.6875 102.136719 C 192.6875 100.71875 193.714844 99.570312 194.980469 99.570312 C 196.25 99.570312 197.273438 100.71875 197.273438 102.136719 Z M 197.273438 102.136719 "/>
<path style=" stroke:none;fill-rule:nonzero;fill:rgb(18.431373%,18.039216%,25.490196%);fill-opacity:1;" d="M 197.25 102.328125 L 197.300781 101.949219 L 201.355469 102.65625 L 201.304688 103.03125 Z M 197.25 102.328125 "/>
<path style=" stroke:none;fill-rule:nonzero;fill:rgb(18.431373%,18.039216%,25.490196%);fill-opacity:1;" d="M 206.476562 98.738281 L 210.03125 92.859375 L 210.3125 93.070312 L 206.757812 98.949219 Z M 206.476562 98.738281 "/>
<path style=" stroke:none;fill-rule:nonzero;fill:rgb(18.431373%,18.039216%,25.490196%);fill-opacity:1;" d="M 40.375 118.277344 C 40.304688 118.285156 40.246094 118.230469 40.238281 118.152344 C 40.230469 118.074219 40.28125 118.003906 40.351562 117.996094 L 47.523438 116.253906 C 47.570312 116.234375 47.625 116.246094 47.660156 116.289062 C 47.695312 116.328125 47.707031 116.386719 47.6875 116.441406 C 47.671875 116.492188 47.628906 116.527344 47.578125 116.53125 L 40.402344 118.273438 Z M 40.375 118.277344 "/>
<path style=" stroke:none;fill-rule:nonzero;fill:rgb(90.196078%,90.588235%,90.980392%);fill-opacity:1;" d="M 38.988281 121.78125 C 38.929688 121.78125 38.878906 121.734375 38.867188 121.671875 C 38.859375 121.636719 38.863281 121.597656 38.882812 121.5625 C 38.898438 121.53125 38.929688 121.511719 38.960938 121.503906 L 50.003906 118.679688 C 50.039062 118.671875 50.070312 118.679688 50.101562 118.699219 C 50.128906 118.71875 50.148438 118.753906 50.15625 118.789062 C 50.164062 118.824219 50.160156 118.863281 50.140625 118.898438 C 50.125 118.929688 50.09375 118.949219 50.0625 118.957031 L 39.019531 121.78125 Z M 38.988281 121.78125 "/>
<path style=" stroke:none;fill-rule:nonzero;fill:rgb(18.431373%,18.039216%,25.490196%);fill-opacity:1;" d="M 39.550781 125.167969 C 39.488281 125.164062 39.441406 125.109375 39.433594 125.042969 C 39.429688 124.972656 39.464844 124.910156 39.527344 124.890625 L 50.730469 122.097656 C 50.800781 122.082031 50.867188 122.128906 50.882812 122.203125 C 50.898438 122.28125 50.855469 122.355469 50.785156 122.375 L 39.578125 125.167969 Z M 39.550781 125.167969 "/>
<path style=" stroke:none;fill-rule:nonzero;fill:rgb(18.431373%,18.039216%,25.490196%);fill-opacity:1;" d="M 41.828125 134.730469 C 41.765625 134.730469 41.714844 134.683594 41.703125 134.617188 C 41.695312 134.578125 41.703125 134.542969 41.722656 134.511719 C 41.742188 134.480469 41.769531 134.457031 41.804688 134.453125 L 52.898438 132.089844 C 52.96875 132.074219 53.035156 132.128906 53.046875 132.203125 C 53.058594 132.28125 53.011719 132.355469 52.945312 132.371094 L 41.851562 134.730469 Z M 41.828125 134.730469 "/>
<path style=" stroke:none;fill-rule:nonzero;fill:rgb(90.196078%,90.588235%,90.980392%);fill-opacity:1;" d="M 44.511719 137.886719 C 44.453125 137.886719 44.402344 137.839844 44.390625 137.777344 C 44.371094 137.699219 44.414062 137.625 44.484375 137.605469 L 51.613281 135.730469 C 51.683594 135.714844 51.75 135.761719 51.765625 135.839844 C 51.773438 135.875 51.769531 135.914062 51.75 135.945312 C 51.734375 135.976562 51.707031 136 51.671875 136.007812 L 44.539062 137.886719 Z M 44.511719 137.886719 "/>
<path style=" stroke:none;fill-rule:nonzero;fill:rgb(18.431373%,18.039216%,25.490196%);fill-opacity:1;" d="M 43.160156 141.746094 C 43.097656 141.746094 43.046875 141.699219 43.035156 141.632812 C 43.019531 141.554688 43.066406 141.480469 43.132812 141.464844 L 54.28125 138.84375 C 54.351562 138.828125 54.417969 138.878906 54.433594 138.953125 C 54.449219 139.03125 54.402344 139.109375 54.335938 139.125 L 43.183594 141.730469 Z M 43.160156 141.746094 "/>
<path style=" stroke:none;fill-rule:nonzero;fill:rgb(18.431373%,18.039216%,25.490196%);fill-opacity:1;" d="M 45.15625 150.332031 C 45.085938 150.339844 45.023438 150.285156 45.019531 150.207031 C 45.011719 150.128906 45.0625 150.0625 45.128906 150.054688 L 55.664062 147.585938 C 55.730469 147.570312 55.796875 147.617188 55.8125 147.695312 C 55.820312 147.730469 55.816406 147.769531 55.796875 147.800781 C 55.777344 147.835938 55.75 147.855469 55.714844 147.863281 L 45.179688 150.332031 Z M 45.15625 150.332031 "/>
<path style=" stroke:none;fill-rule:nonzero;fill:rgb(90.196078%,90.588235%,90.980392%);fill-opacity:1;" d="M 46.550781 153.710938 C 46.492188 153.710938 46.441406 153.667969 46.429688 153.605469 C 46.410156 153.527344 46.453125 153.453125 46.519531 153.429688 L 55.234375 150.972656 C 55.304688 150.953125 55.371094 151 55.390625 151.074219 C 55.40625 151.148438 55.367188 151.226562 55.296875 151.246094 L 46.582031 153.710938 Z M 46.550781 153.710938 "/>
<path style=" stroke:none;fill-rule:nonzero;fill:rgb(90.196078%,90.588235%,90.980392%);fill-opacity:1;" d="M 47.375 156.246094 C 47.316406 156.246094 47.265625 156.199219 47.253906 156.136719 C 47.234375 156.058594 47.277344 155.984375 47.347656 155.964844 L 55.617188 153.757812 C 55.652344 153.75 55.6875 153.753906 55.714844 153.773438 C 55.742188 153.792969 55.765625 153.828125 55.773438 153.863281 C 55.789062 153.941406 55.746094 154.015625 55.675781 154.035156 L 47.40625 156.242188 Z M 47.375 156.246094 "/>
<path style=" stroke:none;fill-rule:nonzero;fill:rgb(18.431373%,18.039216%,25.490196%);fill-opacity:1;" d="M 168.597656 176.289062 L 180.941406 195.566406 L 180.941406 182.140625 C 180.5625 182.199219 180.175781 182.140625 179.828125 181.972656 C 179.828125 181.972656 170.335938 176.207031 168.597656 176.289062 Z M 168.597656 176.289062 "/>
<path style=" stroke:none;fill-rule:nonzero;fill:rgb(0%,44.313725%,94.901961%);fill-opacity:1;" d="M 140 120.609375 C 140 120.609375 138.410156 101.886719 146.691406 98.570312 L 165.367188 101.023438 C 165.367188 101.023438 168.742188 102.96875 169.945312 105.472656 C 169.945312 105.472656 176.667969 108.78125 179.070312 112.277344 C 179.070312 112.277344 183.066406 119.714844 184.277344 125.625 C 184.277344 125.625 186.121094 137.453125 184.277344 149.097656 L 183.015625 169.339844 C 183.015625 169.339844 183.53125 178.765625 181.523438 181.691406 C 181.097656 182.238281 180.378906 182.355469 179.832031 181.972656 C 177.511719 180.566406 171.121094 176.792969 168.601562 176.289062 C 168.601562 176.289062 165.488281 175.046875 157.617188 160.28125 L 143.980469 132.359375 Z M 140 120.609375 "/>
<use xlink:href="#surface8" mask="url(#mask1)"/>
<path style=" stroke:none;fill-rule:nonzero;fill:rgb(65.490196%,66.27451%,67.45098%);fill-opacity:1;" d="M 184.019531 124.515625 C 184.019531 124.515625 204.199219 127.304688 201.988281 140.355469 C 201.988281 140.355469 201.628906 147.871094 195.429688 164.996094 C 195.429688 164.996094 184.617188 192.628906 185.589844 201.957031 L 182.167969 196.234375 L 182.636719 194.117188 C 182.742188 192.949219 182.703125 191.765625 182.527344 190.609375 C 182.527344 190.609375 182.011719 189.242188 183.894531 182.148438 L 192.167969 155.894531 C 192.167969 155.894531 198.898438 135.933594 184.980469 133.441406 C 184.988281 133.4375 184.660156 126.714844 184.019531 124.515625 Z M 184.019531 124.515625 "/>
<path style=" stroke:none;fill-rule:nonzero;fill:rgb(73.72549%,74.509804%,75.294118%);fill-opacity:1;" d="M 184.988281 133.4375 C 184.988281 133.4375 194.507812 133.910156 193.785156 146.675781 C 193.785156 146.675781 193.925781 150.316406 191.691406 157.40625 L 183.902344 182.140625 C 183.902344 182.140625 182.371094 187.90625 182.53125 190.601562 C 182.84375 192.484375 182.71875 194.421875 182.171875 196.234375 L 180.941406 194.171875 L 180.941406 182.140625 C 180.941406 182.140625 182.707031 181.554688 182.992188 173.308594 L 183.015625 169.339844 L 183.316406 164.5 L 184.273438 149.097656 C 184.273438 149.097656 185.128906 137.675781 184.988281 133.4375 Z M 184.988281 133.4375 "/>
<path style=" stroke:none;fill-rule:nonzero;fill:rgb(81.960784%,82.745098%,83.137255%);fill-opacity:1;" d="M 55.710938 206.671875 L 61.074219 119.460938 C 61.089844 119.179688 61.304688 118.960938 61.558594 118.96875 L 136.90625 120.867188 C 137.058594 120.871094 137.203125 120.960938 137.289062 121.101562 L 188.285156 206.46875 C 188.382812 206.628906 188.394531 206.839844 188.3125 207.011719 C 188.226562 207.1875 188.066406 207.292969 187.890625 207.292969 C 176.765625 207.25 64.914062 206.84375 56.203125 207.238281 C 56.066406 207.242188 55.9375 207.1875 55.84375 207.078125 C 55.75 206.96875 55.703125 206.824219 55.710938 206.671875 Z M 55.710938 206.671875 "/>
<path style=" stroke:none;fill-rule:nonzero;fill:rgb(0%,44.313725%,94.901961%);fill-opacity:1;" d="M 133 122.375 C 133.113281 121.96875 133.445312 121.59375 134.332031 121.738281 C 134.332031 121.738281 138.3125 121.636719 139.15625 121.117188 C 139.15625 121.117188 140.765625 119.628906 141.59375 121.433594 C 141.59375 121.433594 143.589844 124.167969 144.203125 129.007812 C 144.203125 129.007812 145.421875 134.21875 142.316406 132.046875 C 142.316406 132.046875 141.152344 134.402344 137.660156 133.785156 C 137.660156 133.785156 136.421875 133.703125 136.074219 132.777344 C 135.964844 132.464844 135.976562 132.121094 136.101562 131.816406 C 136.464844 130.898438 137.425781 127.425781 133.335938 123.550781 C 133.023438 123.269531 132.894531 122.808594 133 122.375 Z M 133 122.375 "/>
<use xlink:href="#surface11" mask="url(#mask2)"/>
<use xlink:href="#surface14" mask="url(#mask3)"/>
<use xlink:href="#surface17" mask="url(#mask4)"/>
<use xlink:href="#surface20" mask="url(#mask5)"/>
<path style=" stroke:none;fill-rule:nonzero;fill:rgb(97.647059%,70.588235%,60%);fill-opacity:1;" d="M 132.964844 122.90625 L 121.746094 125.289062 C 121.746094 125.289062 120.472656 126.09375 118.527344 124.664062 L 115.8125 122.90625 C 115.8125 122.90625 114.925781 121.949219 112.375 122.621094 L 109.679688 123.203125 C 109.042969 123.335938 108.519531 123.84375 108.304688 124.53125 C 107.671875 126.609375 106.488281 130.855469 107.496094 130.757812 C 107.496094 130.757812 107.9375 130.945312 108.546875 130.265625 C 108.546875 130.265625 108.382812 131.75 108.9375 132.308594 L 110.667969 134.304688 C 110.765625 134.417969 110.902344 134.480469 111.046875 134.46875 C 111.1875 134.460938 111.316406 134.382812 111.402344 134.253906 C 111.53125 134.035156 111.613281 133.652344 111.519531 132.976562 C 111.511719 132.953125 111.523438 132.929688 111.542969 132.917969 C 111.5625 132.90625 111.585938 132.914062 111.597656 132.933594 L 112.660156 134.261719 C 112.789062 134.421875 112.996094 134.476562 113.175781 134.394531 C 113.460938 134.261719 113.746094 133.859375 113.261719 132.671875 C 113.261719 132.671875 114.371094 133.964844 115.148438 133.566406 C 115.148438 133.566406 115.648438 133.476562 114.925781 132.289062 C 114.925781 132.289062 117.777344 133.78125 120.035156 131.796875 C 120.035156 131.796875 120.195312 131.296875 122.1875 131.609375 L 135.9375 132.230469 C 135.9375 132.230469 138.101562 127.761719 133.335938 123.539062 C 133.085938 123.460938 132.929688 123.191406 132.964844 122.90625 Z M 132.964844 122.90625 "/>
<path style=" stroke:none;fill-rule:nonzero;fill:rgb(96.862745%,64.313725%,54.509804%);fill-opacity:1;" d="M 121.378906 131.523438 C 121.378906 131.523438 121.53125 130.230469 126.71875 130.71875 C 127.007812 130.75 127.300781 130.757812 127.59375 130.75 L 132.515625 130.609375 C 132.515625 130.609375 135.015625 130.996094 134.472656 127.710938 C 134.378906 127.167969 134.21875 126.644531 134 126.152344 C 133.574219 125.175781 132.722656 123.28125 132.4375 123.019531 L 132.964844 122.90625 C 132.964844 122.90625 132.933594 123.175781 133.335938 123.546875 C 133.335938 123.546875 137.867188 127.222656 135.9375 132.234375 Z M 121.378906 131.523438 "/>
<path style=" stroke:none;fill-rule:nonzero;fill:rgb(96.862745%,64.313725%,54.509804%);fill-opacity:1;" d="M 108.546875 130.25 C 108.695312 130.03125 108.816406 129.789062 108.910156 129.535156 C 109.011719 129.285156 109.097656 129.03125 109.175781 128.773438 C 109.253906 128.515625 109.328125 128.253906 109.394531 127.992188 C 109.457031 127.730469 109.511719 127.460938 109.574219 127.191406 L 109.574219 127.238281 C 109.5625 127.066406 109.597656 126.894531 109.667969 126.738281 C 109.734375 126.597656 109.824219 126.464844 109.933594 126.355469 C 110.035156 126.253906 110.152344 126.167969 110.277344 126.097656 C 110.398438 126.03125 110.527344 125.976562 110.660156 125.9375 C 110.542969 126.015625 110.433594 126.097656 110.324219 126.183594 C 110.222656 126.273438 110.125 126.371094 110.039062 126.480469 C 109.960938 126.585938 109.898438 126.707031 109.851562 126.832031 C 109.8125 126.949219 109.792969 127.078125 109.796875 127.203125 L 109.796875 127.246094 C 109.753906 127.523438 109.695312 127.796875 109.632812 128.066406 C 109.5625 128.339844 109.480469 128.605469 109.382812 128.867188 C 109.289062 129.128906 109.171875 129.378906 109.035156 129.617188 C 108.910156 129.859375 108.742188 130.074219 108.546875 130.25 Z M 108.546875 130.25 "/>
<path style=" stroke:none;fill-rule:nonzero;fill:rgb(96.862745%,64.313725%,54.509804%);fill-opacity:1;" d="M 114.289062 123.660156 C 113.917969 124.019531 113.558594 124.394531 113.21875 124.789062 C 112.878906 125.175781 112.558594 125.589844 112.265625 126.023438 C 111.96875 126.445312 111.738281 126.917969 111.574219 127.421875 C 111.5 127.664062 111.476562 127.921875 111.507812 128.175781 C 111.546875 128.417969 111.652344 128.644531 111.8125 128.816406 C 111.882812 128.863281 111.964844 128.890625 112.050781 128.894531 C 112.148438 128.894531 112.246094 128.871094 112.335938 128.824219 C 112.523438 128.722656 112.6875 128.582031 112.820312 128.40625 C 112.964844 128.222656 113.09375 128.027344 113.207031 127.816406 C 113.328125 127.613281 113.425781 127.386719 113.527344 127.175781 L 113.632812 126.957031 L 113.738281 127.175781 C 113.917969 127.539062 114.144531 127.875 114.410156 128.171875 C 114.675781 128.472656 114.984375 128.71875 115.324219 128.898438 C 115.667969 129.082031 116.039062 129.183594 116.417969 129.199219 C 116.609375 129.207031 116.800781 129.199219 116.988281 129.171875 C 117.179688 129.148438 117.363281 129.085938 117.558594 129.046875 C 117.375 129.105469 117.191406 129.1875 116.988281 129.226562 C 116.800781 129.269531 116.609375 129.296875 116.417969 129.300781 C 116.222656 129.304688 116.023438 129.289062 115.832031 129.253906 C 115.636719 129.210938 115.445312 129.144531 115.261719 129.058594 C 114.894531 128.886719 114.554688 128.640625 114.265625 128.339844 C 113.972656 128.035156 113.722656 127.683594 113.527344 127.292969 L 113.734375 127.292969 C 113.636719 127.523438 113.527344 127.75 113.410156 127.96875 C 113.292969 128.195312 113.160156 128.410156 113.007812 128.605469 C 112.851562 128.816406 112.65625 128.988281 112.4375 129.105469 C 112.1875 129.242188 111.890625 129.21875 111.660156 129.042969 C 111.46875 128.824219 111.339844 128.546875 111.296875 128.242188 C 111.265625 127.949219 111.296875 127.652344 111.382812 127.371094 C 111.554688 126.839844 111.816406 126.351562 112.144531 125.921875 C 112.460938 125.496094 112.800781 125.09375 113.167969 124.722656 C 113.523438 124.34375 113.898438 123.988281 114.289062 123.660156 Z M 114.289062 123.660156 "/>
<path style=" stroke:none;fill-rule:nonzero;fill:rgb(96.862745%,64.313725%,54.509804%);fill-opacity:1;" d="M 111.375 128.09375 C 111.320312 128.523438 111.25 128.949219 111.164062 129.371094 C 111.078125 129.792969 110.972656 130.21875 110.878906 130.613281 C 110.847656 130.800781 110.855469 130.996094 110.90625 131.179688 C 110.96875 131.375 111.046875 131.5625 111.132812 131.746094 C 111.300781 132.132812 111.453125 132.53125 111.589844 132.933594 C 111.363281 132.585938 111.152344 132.222656 110.957031 131.851562 C 110.84375 131.667969 110.746094 131.46875 110.671875 131.261719 C 110.601562 131.035156 110.585938 130.792969 110.621094 130.558594 C 110.726562 130.117188 110.835938 129.722656 110.957031 129.308594 C 111.082031 128.894531 111.234375 128.492188 111.375 128.09375 Z M 111.375 128.09375 "/>
<path style=" stroke:none;fill-rule:nonzero;fill:rgb(96.862745%,64.313725%,54.509804%);fill-opacity:1;" d="M 113.261719 132.671875 C 112.824219 132.351562 112.542969 131.816406 112.511719 131.230469 C 112.492188 130.941406 112.527344 130.652344 112.613281 130.378906 C 112.65625 130.246094 112.707031 130.113281 112.765625 129.988281 C 112.832031 129.871094 112.90625 129.753906 112.984375 129.644531 C 112.957031 129.78125 112.914062 129.914062 112.882812 130.042969 C 112.851562 130.175781 112.824219 130.300781 112.808594 130.433594 C 112.765625 130.6875 112.753906 130.949219 112.769531 131.207031 C 112.785156 131.464844 112.835938 131.71875 112.921875 131.960938 C 113.007812 132.214844 113.121094 132.453125 113.261719 132.671875 Z M 113.261719 132.671875 "/>
<path style="fill:none;stroke-width:1;stroke-linecap:butt;stroke-linejoin:miter;stroke:rgb(92.941176%,10.980392%,14.117647%);stroke-opacity:1;stroke-miterlimit:10;" d="M 468.485292 498.848964 L 468.457901 498.848964 " transform="matrix(0.285219,0,0,0.31918,0,-0.000000000000018143)"/>
<use xlink:href="#surface23" mask="url(#mask6)"/>
<path style=" stroke:none;fill-rule:nonzero;fill:rgb(0%,44.313725%,94.901961%);fill-opacity:1;" d="M 170.660156 160.4375 C 168.382812 162.8125 165.195312 163.761719 162.164062 162.957031 L 162 162.910156 C 162 162.910156 159.71875 162.640625 160.515625 160.4375 C 160.515625 160.4375 163.714844 157.902344 156.503906 149.371094 C 156.503906 149.371094 154.085938 147.402344 155.570312 146.675781 C 155.617188 146.648438 155.667969 146.625 155.722656 146.609375 C 155.722656 146.609375 155.945312 146.191406 160.054688 146.191406 C 160.054688 146.191406 162.910156 146.136719 164.242188 145.285156 C 164.242188 145.285156 166.070312 143.457031 167.246094 144.683594 C 167.246094 144.683594 172.253906 150.367188 172.382812 156.386719 C 172.390625 156.398438 173.128906 163.226562 170.660156 160.4375 Z M 170.660156 160.4375 "/>
<use xlink:href="#surface26" mask="url(#mask7)"/>
<use xlink:href="#surface29" mask="url(#mask8)"/>
<use xlink:href="#surface32" mask="url(#mask9)"/>
<use xlink:href="#surface35" mask="url(#mask10)"/>
<use xlink:href="#surface38" mask="url(#mask11)"/>
<path style=" stroke:none;fill-rule:nonzero;fill:rgb(0%,44.313725%,94.901961%);fill-opacity:1;" d="M 106.203125 146.148438 L 133.613281 155.886719 L 111.375 176.453125 L 67.246094 158.550781 L 71.53125 155.773438 Z M 106.203125 146.148438 "/>
<use xlink:href="#surface41" mask="url(#mask12)"/>
<path style=" stroke:none;fill-rule:nonzero;fill:rgb(0%,44.313725%,94.901961%);fill-opacity:1;" d="M 67.246094 158.550781 L 68.113281 164.332031 L 111.171875 182.511719 L 135.210938 158.550781 L 133.613281 155.886719 L 111.375 176.453125 Z M 67.246094 158.550781 "/>
<path style=" stroke:none;fill-rule:nonzero;fill:rgb(0%,44.313725%,94.901961%);fill-opacity:1;" d="M 54.789062 113.371094 L 57.1875 111.59375 L 103.464844 123.660156 L 111.171875 173.3125 L 109.605469 174.746094 L 101.125 126.453125 Z M 54.789062 113.371094 "/>
<use xlink:href="#surface44" mask="url(#mask13)"/>
<use xlink:href="#surface47" mask="url(#mask14)"/>
<use xlink:href="#surface50" mask="url(#mask15)"/>
<path style=" stroke:none;fill-rule:nonzero;fill:rgb(73.72549%,74.509804%,75.294118%);fill-opacity:1;" d="M 110.738281 188.953125 L 93.625 199.394531 L 91.910156 199.394531 L 93.28125 196.957031 L 109.597656 186.683594 C 110.066406 186.390625 110.660156 186.570312 110.929688 187.09375 L 111.109375 187.445312 C 111.128906 187.484375 111.148438 187.527344 111.164062 187.570312 C 111.359375 188.085938 111.175781 188.683594 110.738281 188.953125 Z M 110.738281 188.953125 "/>
<use xlink:href="#surface53" mask="url(#mask16)"/>
<path style=" stroke:none;fill-rule:nonzero;fill:rgb(73.72549%,74.509804%,75.294118%);fill-opacity:1;" d="M 113.566406 193.742188 L 103.265625 202.148438 L 102.234375 202.148438 L 103.058594 200.1875 L 112.882812 191.914062 C 113.167969 191.675781 113.523438 191.824219 113.6875 192.234375 L 113.792969 192.515625 C 113.792969 192.550781 113.816406 192.582031 113.828125 192.617188 C 113.953125 193.019531 113.847656 193.460938 113.566406 193.742188 Z M 113.566406 193.742188 "/>
<use xlink:href="#surface56" mask="url(#mask17)"/>
<path style=" stroke:none;fill-rule:nonzero;fill:rgb(0%,44.313725%,94.901961%);fill-opacity:1;" d="M 138.253906 167.539062 C 138.253906 167.539062 147.820312 163.265625 150.855469 162.957031 C 150.855469 162.957031 161.222656 182.804688 162.773438 187.332031 C 162.773438 187.332031 161.761719 189.25 154.699219 192.542969 L 138.253906 168.921875 Z M 138.253906 167.539062 "/>
<use xlink:href="#surface59" mask="url(#mask18)"/>
<path style=" stroke:none;fill-rule:nonzero;fill:rgb(97.647059%,70.588235%,60%);fill-opacity:1;" d="M 154.328125 99.351562 C 154.328125 99.351562 155.066406 103.984375 154.773438 105.472656 L 153.957031 127.230469 L 156.546875 114.988281 C 156.546875 114.988281 157.046875 111.476562 160.226562 108.921875 C 160.324219 108.847656 160.421875 108.773438 160.511719 108.703125 C 161.480469 108.007812 167.386719 103.570312 164.1875 101.042969 L 161.734375 91.054688 Z M 154.328125 99.351562 "/>
<path style=" stroke:none;fill-rule:nonzero;fill:rgb(96.862745%,64.313725%,54.509804%);fill-opacity:1;" d="M 154.328125 99.351562 C 154.328125 99.351562 155.105469 103.652344 154.773438 105.472656 C 154.773438 105.472656 162.265625 101.84375 162.59375 94.496094 L 161.738281 91.035156 Z M 154.328125 99.351562 "/>
<path style=" stroke:none;fill-rule:nonzero;fill:rgb(97.647059%,70.588235%,60%);fill-opacity:1;" d="M 162.523438 84.867188 C 162.523438 75.945312 157.890625 68.710938 152.175781 68.710938 C 146.460938 68.710938 141.828125 75.945312 141.828125 84.867188 C 141.828125 93.789062 146.460938 101.023438 152.175781 101.023438 C 157.890625 101.023438 162.523438 93.789062 162.523438 84.867188 Z M 162.523438 84.867188 "/>
<path style=" stroke:none;fill-rule:nonzero;fill:rgb(18.431373%,18.039216%,25.490196%);fill-opacity:1;" d="M 164.917969 87.417969 L 161.578125 86.96875 L 160.292969 86.816406 C 159.613281 86.097656 160.292969 84.882812 160.292969 84.882812 C 160.640625 84.1875 160.640625 83.34375 160.292969 82.648438 C 160.011719 81.121094 159.484375 79.664062 158.742188 78.347656 C 156.304688 78.265625 156.460938 77.308594 156.460938 77.308594 C 155.945312 75.859375 151.214844 78.265625 151.214844 78.265625 C 144.792969 81.390625 141.316406 78.835938 141.316406 78.835938 C 139.972656 78.125 140.117188 77.097656 140.589844 76.253906 C 140.929688 75.695312 141.347656 75.195312 141.828125 74.785156 C 141.15625 73.871094 141.828125 72.230469 141.828125 72.230469 C 142.398438 70.410156 144.644531 70.910156 144.644531 70.910156 C 145.679688 67.351562 147.898438 67.847656 147.898438 67.847656 C 149.746094 66.191406 154.253906 65.199219 154.253906 65.199219 C 161.3125 64.289062 164.78125 69.882812 166.125 72.925781 C 166.617188 74.046875 166.929688 75.257812 167.050781 76.496094 C 167.78125 83.78125 164.917969 87.417969 164.917969 87.417969 Z M 164.917969 87.417969 "/>
<use xlink:href="#surface62" mask="url(#mask19)"/>
<path style=" stroke:none;fill-rule:nonzero;fill:rgb(97.647059%,70.588235%,60%);fill-opacity:1;" d="M 165.027344 88.460938 C 165.027344 86.472656 163.90625 84.863281 162.523438 84.863281 C 161.140625 84.863281 160.019531 86.472656 160.019531 88.460938 C 160.019531 90.449219 161.140625 92.058594 162.523438 92.058594 C 163.90625 92.058594 165.027344 90.449219 165.027344 88.460938 Z M 165.027344 88.460938 "/>
<path style=" stroke:none;fill-rule:nonzero;fill:rgb(0%,44.313725%,94.901961%);fill-opacity:1;" d="M 154.75 102.394531 L 149.988281 106.496094 L 148.042969 117.503906 L 152.175781 113.085938 L 154.328125 118.144531 L 154.773438 105.472656 C 154.90625 104.453125 154.898438 103.414062 154.75 102.394531 Z M 154.75 102.394531 "/>
<use xlink:href="#surface65" mask="url(#mask20)"/>
<path style=" stroke:none;fill-rule:nonzero;fill:rgb(0%,44.313725%,94.901961%);fill-opacity:1;" d="M 157.613281 112.046875 C 157.613281 112.046875 161.554688 111.574219 164.3125 115.789062 L 167.246094 120.257812 L 165.800781 104.03125 C 165.800781 104.03125 166.371094 100.640625 163.894531 99.796875 L 164.199219 101.03125 C 164.199219 101.03125 166.414062 102.414062 164.179688 105.207031 C 164.179688 105.207031 163.082031 106.84375 160.519531 108.695312 C 159.3125 109.519531 158.3125 110.671875 157.613281 112.046875 Z M 157.613281 112.046875 "/>
<use xlink:href="#surface68" mask="url(#mask21)"/>
<path style=" stroke:none;fill-rule:nonzero;fill:rgb(96.862745%,64.313725%,54.509804%);fill-opacity:1;" d="M 115.851562 148.417969 C 115.851562 148.417969 111.652344 151.777344 112.945312 152.460938 C 113.347656 152.765625 113.875 152.765625 114.277344 152.460938 C 114.277344 152.460938 114.308594 150.996094 115.851562 148.417969 Z M 115.851562 148.417969 "/>
<path style=" stroke:none;fill-rule:nonzero;fill:rgb(97.647059%,70.588235%,60%);fill-opacity:1;" d="M 160.515625 160.4375 L 134.003906 159.234375 C 133.875 159.234375 133.746094 159.234375 133.621094 159.234375 C 132.3125 159.199219 131.019531 158.886719 129.816406 158.3125 C 127.65625 157.292969 126.050781 155.199219 125.476562 152.652344 L 123.902344 154.25 C 122.859375 155.648438 121.996094 155.605469 121.605469 155.480469 C 121.527344 155.457031 121.449219 155.417969 121.378906 155.371094 C 119.996094 154.683594 121.917969 151.804688 122.097656 151.539062 L 120.386719 153.527344 C 118.59375 155.53125 117.875 154.804688 117.875 154.804688 C 116.46875 154.214844 117.9375 151.480469 118.515625 150.503906 L 117.53125 152.078125 C 115.609375 155.046875 114.867188 153.996094 114.867188 153.996094 C 113.066406 153.300781 115.460938 148.953125 116.578125 147.117188 C 116.890625 146.597656 117.386719 146.25 117.941406 146.160156 L 123.15625 145.289062 C 123.59375 145.214844 124.039062 145.300781 124.429688 145.53125 L 132.636719 150.316406 C 133.15625 150.621094 133.738281 150.761719 134.320312 150.726562 L 156.503906 149.375 C 163.597656 157.546875 160.515625 160.4375 160.515625 160.4375 Z M 160.515625 160.4375 "/>
<path style=" stroke:none;fill-rule:nonzero;fill:rgb(96.862745%,64.313725%,54.509804%);fill-opacity:1;" d="M 114.871094 154.019531 L 118.8125 148.417969 L 122.183594 147.539062 L 119.671875 149.222656 L 118.742188 150.179688 L 117.152344 152.671875 C 117.152344 152.671875 115.734375 154.769531 114.871094 154.019531 Z M 114.871094 154.019531 "/>
<path style=" stroke:none;fill-rule:nonzero;fill:rgb(96.862745%,64.313725%,54.509804%);fill-opacity:1;" d="M 118.871094 154.800781 L 122.835938 149.375 C 122.839844 149.367188 122.851562 149.367188 122.859375 149.371094 C 122.867188 149.378906 122.871094 149.390625 122.863281 149.398438 L 122.109375 151.519531 C 122.109375 151.519531 119.742188 154.460938 118.871094 154.800781 Z M 118.871094 154.800781 "/>
<path style=" stroke:none;fill-rule:nonzero;fill:rgb(96.862745%,64.313725%,54.509804%);fill-opacity:1;" d="M 129.816406 158.3125 C 127.65625 157.292969 126.050781 155.199219 125.476562 152.652344 L 123.902344 154.25 C 122.859375 155.648438 121.996094 155.605469 121.605469 155.480469 C 121.605469 155.480469 124.894531 149.445312 126.683594 152.515625 Z M 129.816406 158.3125 "/>
<path style=" stroke:none;fill-rule:nonzero;fill:rgb(96.862745%,64.313725%,54.509804%);fill-opacity:1;" d="M 160.515625 160.4375 C 163.21875 156.457031 156.503906 149.371094 156.503906 149.371094 L 158.269531 154.179688 C 159.4375 158.3125 154.875 158.273438 154.875 158.273438 L 143.703125 157.355469 C 136.789062 156.945312 134.007812 159.21875 134.007812 159.21875 Z M 160.515625 160.4375 "/>
<path style=" stroke:none;fill-rule:nonzero;fill:rgb(0%,44.313725%,94.901961%);fill-opacity:1;" d="M 54.789062 113.371094 L 66.597656 157.277344 L 109.605469 174.746094 L 101.125 126.453125 Z M 54.789062 113.371094 "/>
<use xlink:href="#surface71" mask="url(#mask22)"/>
<use xlink:href="#surface74" mask="url(#mask23)"/>
<path style=" stroke:none;fill-rule:nonzero;fill:rgb(18.431373%,18.039216%,25.490196%);fill-opacity:1;" d="M 63.851562 122.875 L 69.90625 120.734375 L 73.214844 131.285156 L 66.144531 134.457031 Z M 63.851562 122.875 "/>
<path style=" stroke:none;fill-rule:nonzero;fill:rgb(100%,100%,100%);fill-opacity:1;" d="M 66.015625 126.597656 C 65.964844 126.59375 65.917969 126.558594 65.898438 126.507812 C 65.871094 126.433594 65.902344 126.347656 65.96875 126.320312 L 70.164062 124.382812 C 70.230469 124.351562 70.304688 124.382812 70.332031 124.457031 C 70.359375 124.53125 70.328125 124.617188 70.265625 124.644531 L 66.058594 126.582031 C 66.046875 126.589844 66.03125 126.59375 66.015625 126.597656 Z M 66.015625 126.597656 "/>
<path style=" stroke:none;fill-rule:nonzero;fill:rgb(100%,100%,100%);fill-opacity:1;" d="M 67.246094 127.742188 C 67.191406 127.742188 67.140625 127.703125 67.125 127.644531 C 67.101562 127.570312 67.136719 127.488281 67.203125 127.460938 L 70.179688 126.316406 C 70.214844 126.300781 70.25 126.304688 70.28125 126.320312 C 70.308594 126.339844 70.332031 126.367188 70.34375 126.40625 C 70.367188 126.480469 70.332031 126.5625 70.265625 126.585938 L 67.289062 127.734375 Z M 67.246094 127.742188 "/>
<path style=" stroke:none;fill-rule:nonzero;fill:rgb(18.431373%,18.039216%,25.490196%);fill-opacity:1;" d="M 93.730469 144.0625 L 94.808594 147.523438 L 91.125 157.539062 L 100.074219 160.027344 L 102.234375 148.023438 L 101.230469 143.171875 Z M 93.730469 144.0625 "/>
<path style=" stroke:none;fill-rule:nonzero;fill:rgb(100%,100%,100%);fill-opacity:1;" d="M 97.679688 145.316406 C 97.679688 145.625 97.457031 145.875 97.179688 145.875 C 96.902344 145.875 96.679688 145.625 96.679688 145.316406 C 96.679688 145.007812 96.902344 144.757812 97.179688 144.757812 C 97.457031 144.757812 97.679688 145.007812 97.679688 145.316406 Z M 97.679688 145.316406 "/>
<use xlink:href="#surface77" mask="url(#mask24)"/>
<path style=" stroke:none;fill-rule:nonzero;fill:rgb(18.431373%,18.039216%,25.490196%);fill-opacity:1;" d="M 124.519531 187.359375 L 120.21875 194.171875 C 120.21875 194.171875 138.1875 203.402344 143.414062 204.992188 L 154.824219 180.292969 L 148.261719 177.386719 Z M 124.519531 187.359375 "/>
<path style=" stroke:none;fill-rule:nonzero;fill:rgb(90.196078%,90.588235%,90.980392%);fill-opacity:1;" d="M 148.261719 172.449219 L 150.707031 172.066406 L 155.066406 194.414062 L 148.847656 194.6875 L 146.644531 173.3125 Z M 148.261719 172.449219 "/>
<use xlink:href="#surface80" mask="url(#mask25)"/>
<use xlink:href="#surface83" mask="url(#mask26)"/>
<path style=" stroke:none;fill-rule:nonzero;fill:rgb(0%,44.313725%,94.901961%);fill-opacity:1;" d="M 126.460938 187.953125 C 126.460938 187.953125 124.496094 195.785156 125.21875 197.398438 L 151.25 199.386719 C 151.25 199.386719 148.769531 179.519531 148.042969 176.453125 C 148.042969 176.453125 145.433594 188.984375 142.554688 192.960938 Z M 126.460938 187.953125 "/>
<path style=" stroke:none;fill-rule:nonzero;fill:rgb(100%,100%,100%);fill-opacity:1;" d="M 123.25 186.953125 L 142.554688 192.960938 C 142.554688 192.960938 144.140625 191.363281 146.519531 182.511719 L 149.453125 170.800781 L 133.996094 167.0625 C 133.996094 167.0625 129.480469 172.53125 127.253906 178.234375 C 127.160156 178.476562 127.0625 178.710938 126.953125 178.945312 Z M 123.25 186.953125 "/>
<path style=" stroke:none;fill-rule:nonzero;fill:rgb(90.196078%,90.588235%,90.980392%);fill-opacity:1;" d="M 24.359375 30.464844 L 24.359375 102.136719 C 24.359375 103.722656 25.511719 105.011719 26.925781 105.011719 L 118.839844 105.011719 C 120.257812 105.011719 121.40625 103.722656 121.40625 102.136719 L 121.40625 30.464844 C 121.40625 28.878906 120.257812 27.59375 118.839844 27.59375 L 26.925781 27.59375 C 25.507812 27.59375 24.359375 28.878906 24.359375 30.464844 Z M 24.359375 30.464844 "/>
<use xlink:href="#surface86" mask="url(#mask27)"/>
<path style=" stroke:none;fill-rule:nonzero;fill:rgb(0%,44.313725%,94.901961%);fill-opacity:1;" d="M 24.359375 95.46875 L 24.359375 102.136719 C 24.359375 103.722656 25.511719 105.011719 26.925781 105.011719 L 118.839844 105.011719 C 120.257812 105.011719 121.40625 103.722656 121.40625 102.136719 L 121.40625 95.46875 Z M 24.359375 95.46875 "/>
<path style=" stroke:none;fill-rule:nonzero;fill:rgb(100%,100%,100%);fill-opacity:1;" d="M 118.027344 100.238281 L 29.238281 100.238281 L 29.238281 99.390625 L 118.027344 99.390625 Z M 118.027344 100.238281 "/>
<path style=" stroke:none;fill-rule:nonzero;fill:rgb(18.431373%,18.039216%,25.490196%);fill-opacity:1;" d="M 101.519531 103.027344 L 100.144531 103.027344 L 100.144531 97.011719 L 101.519531 97.011719 Z M 101.519531 103.027344 "/>
<path style=" stroke:none;fill-rule:nonzero;fill:rgb(0%,44.313725%,94.901961%);fill-opacity:1;" d="M 71.214844 84.320312 C 71.214844 84.320312 71.132812 89.171875 72.464844 89.546875 L 96.140625 89.546875 C 96.140625 89.546875 97.304688 90.011719 97.21875 86.652344 L 97.386719 80.03125 L 100.136719 77.507812 C 100.136719 77.507812 102.9375 80.640625 107.960938 77.949219 C 109.53125 77.09375 110.921875 75.882812 112.050781 74.394531 C 114.558594 71.140625 119.808594 63.417969 120.324219 55.210938 C 120.195312 55.160156 116.359375 53.503906 114.617188 50.773438 C 114.546875 50.664062 114.433594 50.597656 114.308594 50.597656 C 114.1875 50.597656 114.070312 50.664062 114 50.773438 L 105.730469 63.140625 C 105.730469 63.140625 104.898438 56.691406 102.984375 51.664062 C 101.933594 48.90625 100.558594 46.558594 98.8125 45.976562 L 91.34375 43.101562 C 91.34375 43.101562 91.664062 43.828125 91.203125 45.089844 L 89.386719 48.3125 L 86.730469 45.296875 L 83.570312 48.871094 L 78.195312 43.195312 C 78.195312 43.195312 68.960938 47.375 67.960938 50.921875 C 67.960938 50.921875 66.128906 54.464844 65.792969 66.78125 C 65.796875 66.78125 65.546875 83.199219 71.214844 84.320312 Z M 71.214844 84.320312 "/>
<use xlink:href="#surface89" mask="url(#mask28)"/>
<use xlink:href="#surface92" mask="url(#mask29)"/>
<use xlink:href="#surface95" mask="url(#mask30)"/>
<path style=" stroke:none;fill-rule:nonzero;fill:rgb(97.647059%,70.588235%,60%);fill-opacity:1;" d="M 84.898438 72.953125 C 84.898438 72.953125 86.039062 79.019531 88.054688 79.75 C 88.054688 79.75 94.828125 78.75 97.082031 73.707031 C 97.082031 73.707031 97.019531 72.40625 95.011719 74.28125 C 95.425781 73.863281 97.941406 71.285156 97.082031 70.773438 C 97.082031 70.773438 96.582031 69.867188 94.648438 72.167969 C 94.78125 71.976562 97.1875 68.570312 96.519531 67.34375 C 96.519531 67.34375 95.824219 66.386719 94.371094 68.261719 C 95.171875 66.898438 96.050781 65.070312 95.203125 64.824219 C 95.203125 64.824219 94.453125 64.125 91.765625 67.484375 C 91.765625 67.484375 89.511719 71.058594 88.765625 70.394531 C 88.765625 70.394531 90.039062 67.601562 89.367188 66.359375 C 89.277344 66.175781 89.109375 66.054688 88.921875 66.042969 C 88.808594 66.035156 88.699219 66.070312 88.605469 66.144531 C 88.152344 66.492188 87.386719 67.558594 86.394531 70.6875 C 86.390625 70.703125 85.851562 73.246094 84.898438 72.953125 Z M 84.898438 72.953125 "/>
<path style=" stroke:none;fill-rule:nonzero;fill:rgb(96.862745%,64.313725%,54.509804%);fill-opacity:1;" d="M 96.863281 73.320312 C 96.863281 73.320312 94.957031 76.613281 93.726562 75.984375 C 93.726562 75.984375 93.195312 75.984375 94.945312 74.339844 C 94.957031 74.339844 96.117188 73.109375 96.863281 73.320312 Z M 96.863281 73.320312 "/>
<path style=" stroke:none;fill-rule:nonzero;fill:rgb(96.862745%,64.313725%,54.509804%);fill-opacity:1;" d="M 96.863281 70.738281 C 96.863281 70.738281 93.953125 74.25 93.296875 74.09375 C 92.640625 73.9375 94.640625 72.179688 94.640625 72.179688 C 94.640625 72.179688 96.082031 70.257812 96.863281 70.738281 Z M 96.863281 70.738281 "/>
<path style=" stroke:none;fill-rule:nonzero;fill:rgb(96.862745%,64.313725%,54.509804%);fill-opacity:1;" d="M 96.265625 67.15625 C 96.265625 67.15625 93.550781 71.644531 92.554688 71.472656 C 92.554688 71.472656 92.042969 71.273438 93.535156 69.554688 C 93.527344 69.550781 95.136719 66.652344 96.265625 67.15625 Z M 96.265625 67.15625 "/>
<path style=" stroke:none;fill-rule:nonzero;fill:rgb(96.862745%,64.313725%,54.509804%);fill-opacity:1;" d="M 88.234375 71.15625 C 89.109375 73.113281 90.734375 70.390625 90.734375 70.390625 C 91.890625 68.398438 95.203125 64.824219 95.203125 64.824219 C 95.203125 64.824219 94.453125 64.121094 91.765625 67.480469 C 91.765625 67.480469 89.511719 71.054688 88.765625 70.390625 C 88.765625 70.390625 90.039062 67.597656 89.367188 66.359375 C 89.277344 66.171875 89.109375 66.050781 88.921875 66.039062 C 89.011719 66.613281 88.742188 67.558594 88.511719 68.207031 C 88.253906 68.933594 88.132812 69.707031 88.160156 70.484375 C 88.160156 70.710938 88.183594 70.933594 88.234375 71.15625 Z M 88.234375 71.15625 "/>
<use xlink:href="#surface98" mask="url(#mask31)"/>
<path style=" stroke:none;fill-rule:nonzero;fill:rgb(18.431373%,18.039216%,25.490196%);fill-opacity:1;" d="M 96.546875 89.546875 L 97.261719 95.46875 L 70.75 95.46875 L 72.464844 89.546875 Z M 96.546875 89.546875 "/>
<path style=" stroke:none;fill-rule:nonzero;fill:rgb(97.647059%,70.588235%,60%);fill-opacity:1;" d="M 123.644531 46.011719 C 123.644531 46.011719 125.234375 44.25 123.152344 43.828125 L 118.9375 44.1875 C 118.9375 44.1875 114.8125 44.21875 114.773438 51.035156 C 114.773438 51.035156 116.457031 53.628906 120.308594 55.210938 C 120.308594 55.210938 121.628906 52.957031 122.40625 52.546875 C 122.40625 52.546875 123.734375 52.820312 124.214844 51.453125 C 124.214844 51.453125 125.222656 50.128906 124 49.21875 C 124 49.21875 124.246094 47.941406 123.632812 47.390625 C 123.644531 47.386719 124.132812 46.882812 123.644531 46.011719 Z M 123.644531 46.011719 "/>
<path style=" stroke:none;fill-rule:nonzero;fill:rgb(96.862745%,64.313725%,54.509804%);fill-opacity:1;" d="M 122.171875 45.101562 C 122.171875 45.101562 120.769531 46.5 119.28125 46.5625 C 119.238281 46.5625 119.199219 46.582031 119.171875 46.617188 C 119.140625 46.652344 119.128906 46.699219 119.132812 46.746094 C 119.257812 47.753906 119.703125 52.539062 117.558594 53.644531 C 117.558594 53.644531 119.234375 54.953125 120.320312 55.210938 C 120.320312 55.210938 121.558594 53.324219 122.417969 52.546875 C 122.417969 52.546875 120.703125 52.777344 120.746094 51.679688 C 120.746094 51.679688 119.890625 51.46875 120.320312 50.15625 C 120.320312 50.15625 119.121094 49.785156 120.199219 48.15625 C 120.222656 48.121094 120.226562 48.078125 120.214844 48.039062 C 120.203125 48 120.171875 47.972656 120.136719 47.964844 C 119.871094 47.914062 119.472656 47.703125 119.988281 46.882812 C 120.886719 46.609375 121.664062 45.972656 122.171875 45.101562 Z M 122.171875 45.101562 "/>
<path style=" stroke:none;fill-rule:nonzero;fill:rgb(96.862745%,64.313725%,54.509804%);fill-opacity:1;" d="M 122.417969 46.425781 C 122.027344 46.714844 121.679688 47.019531 121.316406 47.304688 C 121.136719 47.453125 120.949219 47.585938 120.769531 47.730469 C 120.585938 47.875 120.390625 48 120.195312 48.15625 C 120.664062 48.085938 121.105469 47.886719 121.480469 47.570312 C 121.671875 47.417969 121.847656 47.246094 122.003906 47.058594 C 122.167969 46.871094 122.308594 46.65625 122.417969 46.425781 Z M 122.417969 46.425781 "/>
<path style=" stroke:none;fill-rule:nonzero;fill:rgb(96.862745%,64.313725%,54.509804%);fill-opacity:1;" d="M 122.417969 49.257812 C 122.054688 49.421875 121.71875 49.558594 121.371094 49.699219 L 120.851562 49.910156 C 120.667969 49.980469 120.492188 50.0625 120.320312 50.15625 C 120.707031 50.207031 121.097656 50.15625 121.460938 50.007812 C 121.644531 49.929688 121.820312 49.832031 121.984375 49.710938 C 122.15625 49.597656 122.300781 49.441406 122.417969 49.257812 Z M 122.417969 49.257812 "/>
<path style=" stroke:none;fill-rule:nonzero;fill:rgb(96.862745%,64.313725%,54.509804%);fill-opacity:1;" d="M 122.746094 50.949219 C 122.398438 51.011719 122.054688 51.105469 121.71875 51.21875 C 121.554688 51.28125 121.390625 51.335938 121.226562 51.414062 C 121.058594 51.484375 120.898438 51.574219 120.746094 51.679688 C 121.105469 51.703125 121.464844 51.652344 121.804688 51.53125 C 121.976562 51.46875 122.140625 51.394531 122.300781 51.304688 C 122.46875 51.214844 122.617188 51.09375 122.746094 50.949219 Z M 122.746094 50.949219 "/>
<path style=" stroke:none;fill-rule:nonzero;fill:rgb(18.431373%,18.039216%,25.490196%);fill-opacity:1;" d="M 124.613281 14.648438 L 120.957031 44.019531 L 119.988281 44.097656 L 123.53125 14.648438 Z M 124.613281 14.648438 "/>
<path style=" stroke:none;fill-rule:nonzero;fill:rgb(100%,100%,100%);fill-opacity:1;" d="M 50.824219 51.296875 L 33.496094 51.296875 C 32.6875 51.296875 32.03125 50.5625 32.03125 49.65625 L 32.03125 36.984375 C 32.03125 36.078125 32.6875 35.34375 33.496094 35.34375 L 50.824219 35.34375 C 51.632812 35.34375 52.289062 36.078125 52.289062 36.984375 L 52.289062 49.65625 C 52.289062 50.5625 51.632812 51.296875 50.824219 51.296875 Z M 50.824219 51.296875 "/>
<path style=" stroke:none;fill-rule:nonzero;fill:rgb(90.196078%,90.588235%,90.980392%);fill-opacity:1;" d="M 43.871094 39.523438 L 43.871094 46.675781 L 38.117188 43.097656 Z M 43.871094 39.523438 "/>
<path style=" stroke:none;fill-rule:nonzero;fill:rgb(100%,100%,100%);fill-opacity:1;" d="M 50.824219 71.472656 L 33.496094 71.472656 C 32.6875 71.472656 32.03125 70.734375 32.03125 69.832031 L 32.03125 57.160156 C 32.03125 56.253906 32.6875 55.519531 33.496094 55.519531 L 50.824219 55.519531 C 51.632812 55.519531 52.289062 56.253906 52.289062 57.160156 L 52.289062 69.832031 C 52.289062 70.734375 51.632812 71.472656 50.824219 71.472656 Z M 50.824219 71.472656 "/>
<path style=" stroke:none;fill-rule:nonzero;fill:rgb(90.196078%,90.588235%,90.980392%);fill-opacity:1;" d="M 43.871094 59.699219 L 43.871094 66.851562 L 38.117188 63.273438 Z M 43.871094 59.699219 "/>
<path style=" stroke:none;fill-rule:nonzero;fill:rgb(100%,100%,100%);fill-opacity:1;" d="M 50.824219 91.066406 L 33.496094 91.066406 C 32.6875 91.066406 32.03125 90.332031 32.03125 89.425781 L 32.03125 76.753906 C 32.03125 75.847656 32.6875 75.113281 33.496094 75.113281 L 50.824219 75.113281 C 51.632812 75.113281 52.289062 75.847656 52.289062 76.753906 L 52.289062 89.425781 C 52.289062 90.332031 51.632812 91.066406 50.824219 91.066406 Z M 50.824219 91.066406 "/>
<path style=" stroke:none;fill-rule:nonzero;fill:rgb(90.196078%,90.588235%,90.980392%);fill-opacity:1;" d="M 43.871094 79.292969 L 43.871094 86.445312 L 38.117188 82.867188 Z M 43.871094 79.292969 "/>
<path style=" stroke:none;fill-rule:nonzero;fill:rgb(97.647059%,70.588235%,60%);fill-opacity:1;" d="M 82.605469 31.027344 C 82.363281 29.605469 81.367188 28.621094 80.382812 28.832031 C 79.402344 29.039062 78.800781 30.363281 79.042969 31.789062 C 79.285156 33.210938 80.277344 34.195312 81.261719 33.984375 C 82.246094 33.773438 82.847656 32.449219 82.605469 31.027344 Z M 82.605469 31.027344 "/>
<path style=" stroke:none;fill-rule:nonzero;fill:rgb(97.647059%,70.588235%,60%);fill-opacity:1;" d="M 89.765625 35.851562 L 89.765625 42.011719 L 86.832031 43.828125 L 81.699219 41.242188 L 81.523438 30.53125 Z M 89.765625 35.851562 "/>
<path style=" stroke:none;fill-rule:nonzero;fill:rgb(96.862745%,64.313725%,54.509804%);fill-opacity:1;" d="M 89.765625 38.070312 L 89.765625 42.011719 L 87.847656 43.195312 C 87.847656 43.195312 81.859375 40.257812 83.460938 35.851562 C 83.472656 35.851562 85.699219 39.796875 89.765625 38.070312 Z M 89.765625 38.070312 "/>
<path style=" stroke:none;fill-rule:nonzero;fill:rgb(97.647059%,70.588235%,60%);fill-opacity:1;" d="M 94.332031 28.472656 C 94.332031 22.925781 91.433594 18.429688 87.859375 18.429688 C 84.285156 18.429688 81.386719 22.925781 81.386719 28.472656 C 81.386719 34.015625 84.285156 38.511719 87.859375 38.511719 C 91.433594 38.511719 94.332031 34.015625 94.332031 28.472656 Z M 94.332031 28.472656 "/>
<path style=" stroke:none;fill-rule:nonzero;fill:rgb(18.431373%,18.039216%,25.490196%);fill-opacity:1;" d="M 79.511719 29.417969 C 79.511719 29.417969 80.53125 28.023438 81.867188 29.417969 C 81.867188 29.417969 82.480469 26.40625 82.105469 24.726562 C 83 24.0625 83.546875 22.953125 83.570312 21.753906 C 83.570312 21.753906 86.011719 24.238281 88.230469 22.730469 C 88.230469 22.730469 86.976562 21.648438 87.605469 20.601562 C 87.605469 20.601562 89.136719 24.378906 91.667969 23.433594 C 91.667969 23.433594 91.042969 22.871094 91.328125 22.105469 C 91.328125 22.105469 92.863281 24.511719 93.847656 24.660156 L 94.175781 26.316406 C 94.175781 26.316406 95.261719 26.046875 95.714844 25.058594 C 96.023438 24.394531 96.042969 23.414062 95.265625 21.984375 C 95.265625 21.984375 96.453125 19.257812 94.324219 17.859375 C 94.324219 17.859375 93.265625 17.019531 90.511719 17.21875 C 90.511719 17.21875 88.515625 13.09375 84.882812 14.28125 C 84.882812 14.28125 82.820312 14.355469 82.449219 18.429688 C 82.449219 18.429688 78.507812 17.585938 77.820312 22.347656 C 77.777344 22.546875 77.75 22.757812 77.746094 22.964844 C 77.714844 23.9375 77.890625 26.082031 79.511719 29.417969 Z M 79.511719 29.417969 "/>
<use xlink:href="#surface101" mask="url(#mask32)"/>
<path style=" stroke:none;fill-rule:nonzero;fill:rgb(0%,44.313725%,94.901961%);fill-opacity:1;" d="M 89.390625 48.308594 L 86.730469 45.300781 L 83.570312 48.871094 L 78.191406 43.195312 L 79.480469 41.195312 C 79.847656 40.628906 80.542969 40.46875 81.078125 40.828125 L 81.691406 41.242188 L 86.828125 43.828125 L 89.84375 41.984375 C 90.046875 41.859375 90.296875 41.871094 90.492188 42.011719 C 91.03125 42.398438 91.9375 43.351562 91.203125 45.089844 Z M 89.390625 48.308594 "/>
<use xlink:href="#surface104" mask="url(#mask33)"/>
<path style=" stroke:none;fill-rule:nonzero;fill:rgb(100%,100%,100%);fill-opacity:1;" d="M 49.601562 158.597656 C 49.53125 158.597656 49.464844 158.582031 49.398438 158.550781 C 47.886719 157.816406 46.867188 156.683594 46.367188 155.183594 C 45.472656 152.523438 46.410156 149.304688 47.355469 147.070312 C 47.839844 145.957031 48.421875 144.910156 49.101562 143.933594 C 52.476562 138.980469 51.398438 135.316406 49.902344 133.082031 C 49.160156 132.007812 48.222656 131.121094 47.148438 130.492188 C 38.089844 125.027344 39.976562 114.089844 39.996094 113.980469 C 40.066406 113.6875 40.328125 113.507812 40.59375 113.570312 C 40.855469 113.628906 41.03125 113.910156 40.996094 114.210938 C 40.917969 114.625 39.246094 124.421875 47.632812 129.488281 C 48.835938 130.195312 49.886719 131.1875 50.710938 132.394531 C 52.421875 134.921875 53.667969 139.097656 49.910156 144.617188 C 49.273438 145.527344 48.726562 146.507812 48.277344 147.546875 C 47.421875 149.582031 46.566406 152.488281 47.316406 154.773438 C 47.71875 155.96875 48.554688 156.886719 49.804688 157.496094 C 50.027344 157.601562 50.152344 157.871094 50.105469 158.136719 C 50.054688 158.402344 49.84375 158.589844 49.601562 158.585938 Z M 49.601562 158.597656 "/>
<path style=" stroke:none;fill-rule:nonzero;fill:rgb(100%,100%,100%);fill-opacity:1;" d="M 53.730469 158.359375 C 53.589844 158.363281 53.457031 158.296875 53.363281 158.1875 C 53.269531 158.078125 53.21875 157.929688 53.222656 157.78125 C 53.222656 157.628906 53.28125 157.484375 53.378906 157.382812 C 54.578125 156.105469 55.179688 154.738281 55.179688 153.324219 C 55.179688 151.136719 53.738281 149.148438 52.535156 147.871094 C 51.710938 147.019531 50.789062 146.292969 49.789062 145.714844 C 43.585938 142.011719 43.550781 136.65625 44.085938 133.789062 C 44.375 132.347656 44.917969 130.988281 45.683594 129.785156 C 50.601562 121.804688 45.710938 113.207031 45.65625 113.121094 C 45.507812 112.855469 45.574219 112.503906 45.804688 112.332031 C 45.917969 112.25 46.058594 112.21875 46.1875 112.25 C 46.320312 112.28125 46.4375 112.371094 46.511719 112.5 C 46.566406 112.589844 51.832031 121.800781 46.511719 130.429688 C 45.828125 131.507812 45.34375 132.730469 45.085938 134.023438 C 44.515625 137.140625 44.941406 141.523438 50.277344 144.710938 C 51.355469 145.335938 52.351562 146.121094 53.242188 147.046875 C 54.589844 148.476562 56.203125 150.730469 56.207031 153.324219 C 56.207031 155.0625 55.496094 156.703125 54.089844 158.203125 C 53.992188 158.308594 53.863281 158.363281 53.730469 158.359375 Z M 53.730469 158.359375 "/>
</g>
</svg>
